<?xml version="1.0" encoding="UTF-8"?><svg id="a" xmlns="http://www.w3.org/2000/svg" viewBox="0 0 294.6 83.2"><defs><style>.b{fill:#fff;}</style></defs><g><path class="b" d="M1,67.48V17.13h31.53v9.23H10.8v11.5H30.47v8.73H10.8v11.65h21.73v9.23H1Z"/><path class="b" d="M32.1,67.48V32.54h9.02v4.26c1.92-3.41,6.39-5.25,10.22-5.25,4.76,0,8.59,2.06,10.37,5.82,2.77-4.26,6.46-5.82,11.08-5.82,6.46,0,12.64,3.91,12.64,13.28v22.65h-9.16v-20.73c0-3.76-1.85-6.6-6.18-6.6-4.05,0-6.46,3.12-6.46,6.89v20.45h-9.37v-20.73c0-3.76-1.92-6.6-6.18-6.6s-6.53,3.05-6.53,6.89v20.45h-9.44Z"/><path class="b" d="M86.2,80.97V32.54h9.16v4.26c1.56-2.7,5.47-5.04,10.72-5.04,10.22,0,16.12,7.81,16.12,18.18s-6.6,18.39-16.48,18.39c-4.83,0-8.38-1.92-10.08-4.26v16.9h-9.44Zm18.04-40.76c-4.83,0-8.73,3.62-8.73,9.8s3.9,9.87,8.73,9.87,8.66-3.62,8.66-9.87-3.83-9.8-8.66-9.8Z"/><path class="b" d="M155.79,50.01c0,10.72-7.88,18.53-18.32,18.53s-18.32-7.81-18.32-18.53,7.88-18.53,18.32-18.53,18.32,7.74,18.32,18.53Zm-9.44,0c0-6.6-4.26-9.94-8.88-9.94s-8.88,3.34-8.88,9.94,4.26,9.94,8.88,9.94,8.88-3.34,8.88-9.94Z"/><path class="b" d="M184.48,32.54l7.53,22.51,6.46-22.51h9.37l-10.94,34.94h-9.44l-8.17-23.86-8.02,23.86h-9.59l-11.15-34.94h9.94l6.46,22.44,7.6-22.44h9.94Z"/><path class="b" d="M236.59,57.47c-1.78,6.04-7.31,11.08-15.91,11.08-9.59,0-18.04-6.89-18.04-18.67,0-11.15,8.24-18.39,17.18-18.39,10.79,0,17.25,6.89,17.25,18.11,0,1.35-.14,2.77-.14,2.91h-24.99c.21,4.62,4.12,7.95,8.8,7.95,4.4,0,6.82-2.2,7.95-5.33l7.88,2.34Zm-8.8-11.43c-.14-3.48-2.41-6.89-7.81-6.89-4.9,0-7.6,3.69-7.81,6.89h15.62Z"/><path class="b" d="M257.47,41.92c-1.07-.21-1.99-.28-2.84-.28-4.83,0-9.02,2.34-9.02,9.87v15.98h-9.44V32.54h9.16v5.18c2.13-4.62,6.96-5.47,9.94-5.47,.78,0,1.49,.07,2.2,.14v9.51Z"/></g><g><path class="b" d="M294.6,22.9c0,.16-.02,.32-.02,.48h0c-14.91,3.22-18.9,6.53-22.12,21.41-.18,0-.37-.01-.55-.02s-.11-21.87-.11-21.87"/><path class="b" d="M248.99,22.9c0-.16,.02-.32,.02-.48h0c14.91-3.22,18.9-6.53,22.12-21.41,.18,0,.37,.01,.55,.02s.11,21.87,.11,21.87"/></g></svg>