<?xml version="1.0" encoding="UTF-8"?><svg id="a" xmlns="http://www.w3.org/2000/svg" viewBox="0 0 294.6 111.87"><defs><style>.b{fill:#fff;}</style></defs><g><g><path class="b" d="M1.44,111.74v-6.28h3.82v.81H2.31v1.93h2.68v.81H2.31v1.92h2.95v.81H1.44Z"/><path class="b" d="M14.22,111.74l-3.39-5.12v5.12h-.87v-6.28h1.16l3.14,4.82v-4.82h.87v6.28h-.9Z"/><path class="b" d="M20.19,111.74v-6.28h3.82v.81h-2.95v1.93h2.68v.81h-2.68v1.92h2.95v.81h-3.82Z"/><path class="b" d="M30.52,109.17h-.94v2.57h-.88v-6.28h2.37c1.19,0,1.92,.83,1.92,1.87,0,.9-.58,1.6-1.53,1.78l1.5,2.63h-1.01l-1.44-2.57Zm.39-.78c.71,0,1.19-.42,1.19-1.06s-.48-1.09-1.19-1.09h-1.33v2.15h1.33Z"/><path class="b" d="M42.39,111.74l-.08-.89c-.27,.5-.96,1.02-2.01,1.02-1.58,0-3.05-1.15-3.05-3.28s1.56-3.27,3.11-3.27c1.37,0,2.42,.76,2.78,1.9l-.79,.34c-.28-.9-1.02-1.44-1.99-1.44-1.13,0-2.23,.81-2.23,2.47s1.06,2.49,2.19,2.49c1.4,0,1.91-.99,1.94-1.64h-2.18v-.78h3v3.08h-.7Z"/><path class="b" d="M46.92,105.45h1.05l1.63,2.8,1.63-2.8h.99l-2.22,3.6v2.69h-.87v-2.69l-2.22-3.6Z"/><path class="b" d="M58.33,108.9c.4,0,.71,.32,.71,.71s-.31,.71-.71,.71-.71-.31-.71-.71,.31-.71,.71-.71Z"/><path class="b" d="M65.09,111.74v-6.28h.89v6.28h-.89Z"/><path class="b" d="M75.3,111.74l-3.39-5.12v5.12h-.87v-6.28h1.16l3.14,4.82v-4.82h.87v6.28h-.9Z"/><path class="b" d="M85.52,111.74l-3.39-5.12v5.12h-.87v-6.28h1.16l3.14,4.82v-4.82h.87v6.28h-.9Z"/><path class="b" d="M94.23,105.32c1.58,0,3.16,1.17,3.16,3.27s-1.58,3.28-3.16,3.28-3.16-1.18-3.16-3.28,1.58-3.27,3.16-3.27Zm0,5.75c1.17,0,2.27-.84,2.27-2.48s-1.1-2.47-2.27-2.47-2.27,.83-2.27,2.47,1.1,2.48,2.27,2.48Z"/><path class="b" d="M105.88,105.45h.91l-2.42,6.28h-.86l-2.37-6.28h.92l1.9,5.17,1.91-5.17Z"/><path class="b" d="M114.37,109.98h-2.78l-.66,1.76h-.93l2.5-6.28h1l2.5,6.28h-.94l-.68-1.76Zm-2.47-.81h2.16l-1.09-2.82-1.07,2.82Z"/><path class="b" d="M122,106.26v5.48h-.87v-5.48h-2.1v-.81h5.07v.81h-2.1Z"/><path class="b" d="M128.48,111.74v-6.28h.89v6.28h-.89Z"/><path class="b" d="M137.16,105.32c1.58,0,3.15,1.17,3.15,3.27s-1.58,3.28-3.15,3.28-3.16-1.18-3.16-3.28,1.58-3.27,3.16-3.27Zm0,5.75c1.17,0,2.27-.84,2.27-2.48s-1.1-2.47-2.27-2.47-2.27,.83-2.27,2.47,1.1,2.48,2.27,2.48Z"/><path class="b" d="M149.22,111.74l-3.4-5.12v5.12h-.87v-6.28h1.16l3.14,4.82v-4.82h.87v6.28h-.9Z"/><path class="b" d="M156.88,108.9c.4,0,.71,.32,.71,.71s-.31,.71-.71,.71-.71-.31-.71-.71,.31-.71,.71-.71Z"/><path class="b" d="M165.93,106.26v5.48h-.87v-5.48h-2.1v-.81h5.07v.81h-2.1Z"/><path class="b" d="M172.41,111.74v-6.28h3.82v.81h-2.95v1.93h2.68v.81h-2.68v1.92h2.95v.81h-3.82Z"/><path class="b" d="M180.43,108.59c0-2.1,1.56-3.27,3.12-3.27,1.44,0,2.45,.78,2.76,1.99l-.81,.28c-.24-.95-.93-1.48-1.96-1.48-1.14,0-2.23,.83-2.23,2.47s1.09,2.48,2.23,2.48c1.07,0,1.75-.65,2-1.51l.77,.28c-.34,1.18-1.33,2.02-2.77,2.02-1.62,0-3.12-1.18-3.12-3.28Z"/><path class="b" d="M194.92,111.74v-2.79h-3.21v2.79h-.87v-6.28h.87v2.69h3.21v-2.69h.87v6.28h-.87Z"/><path class="b" d="M205.12,111.74l-3.4-5.12v5.12h-.87v-6.28h1.16l3.14,4.82v-4.82h.87v6.28h-.9Z"/><path class="b" d="M213.82,105.32c1.58,0,3.16,1.17,3.16,3.27s-1.58,3.28-3.16,3.28-3.15-1.18-3.15-3.28,1.58-3.27,3.15-3.27Zm0,5.75c1.17,0,2.27-.84,2.27-2.48s-1.1-2.47-2.27-2.47-2.27,.83-2.27,2.47,1.1,2.48,2.27,2.48Z"/><path class="b" d="M221.62,111.74v-6.28h.87v5.47h2.97v.81h-3.84Z"/><path class="b" d="M232.35,105.32c1.58,0,3.16,1.17,3.16,3.27s-1.58,3.28-3.16,3.28-3.15-1.18-3.15-3.28,1.58-3.27,3.15-3.27Zm0,5.75c1.17,0,2.27-.84,2.27-2.48s-1.1-2.47-2.27-2.47-2.27,.83-2.27,2.47,1.1,2.48,2.27,2.48Z"/><path class="b" d="M244.88,111.74l-.08-.89c-.28,.5-.96,1.02-2.01,1.02-1.58,0-3.05-1.15-3.05-3.28s1.56-3.27,3.11-3.27c1.37,0,2.42,.76,2.78,1.9l-.79,.34c-.28-.9-1.02-1.44-1.99-1.44-1.12,0-2.22,.81-2.22,2.47s1.06,2.49,2.19,2.49c1.4,0,1.91-.99,1.94-1.64h-2.18v-.78h3v3.08h-.7Z"/><path class="b" d="M249.41,105.45h1.05l1.63,2.8,1.63-2.8h.99l-2.22,3.6v2.69h-.87v-2.69l-2.22-3.6Z"/></g><g><path class="b" d="M0,75.16V24.82H31.53v9.23H9.8v11.5H29.47v8.73H9.8v11.65H31.53v9.23H0Z"/><path class="b" d="M31.1,75.16V40.23h9.02v4.26c1.92-3.41,6.39-5.25,10.22-5.25,4.76,0,8.59,2.06,10.37,5.82,2.77-4.26,6.46-5.82,11.08-5.82,6.46,0,12.64,3.91,12.64,13.28v22.65h-9.16v-20.73c0-3.76-1.85-6.6-6.18-6.6-4.05,0-6.46,3.12-6.46,6.89v20.45h-9.37v-20.73c0-3.76-1.92-6.6-6.18-6.6s-6.53,3.05-6.53,6.89v20.45h-9.44Z"/><path class="b" d="M85.2,88.65V40.23h9.16v4.26c1.56-2.7,5.47-5.04,10.72-5.04,10.22,0,16.12,7.81,16.12,18.18s-6.6,18.39-16.48,18.39c-4.83,0-8.38-1.92-10.08-4.26v16.9h-9.44Zm18.04-40.76c-4.83,0-8.73,3.62-8.73,9.8s3.9,9.87,8.73,9.87,8.66-3.62,8.66-9.87-3.83-9.8-8.66-9.8Z"/><path class="b" d="M154.79,57.69c0,10.72-7.88,18.53-18.32,18.53s-18.32-7.81-18.32-18.53,7.88-18.53,18.32-18.53,18.32,7.74,18.32,18.53Zm-9.44,0c0-6.6-4.26-9.94-8.88-9.94s-8.88,3.34-8.88,9.94,4.26,9.94,8.88,9.94,8.88-3.34,8.88-9.94Z"/><path class="b" d="M183.48,40.23l7.53,22.51,6.46-22.51h9.37l-10.94,34.94h-9.44l-8.17-23.86-8.02,23.86h-9.59l-11.15-34.94h9.94l6.46,22.44,7.6-22.44h9.94Z"/><path class="b" d="M235.59,65.15c-1.78,6.04-7.31,11.08-15.91,11.08-9.59,0-18.04-6.89-18.04-18.67,0-11.15,8.24-18.39,17.18-18.39,10.79,0,17.25,6.89,17.25,18.11,0,1.35-.14,2.77-.14,2.91h-24.99c.21,4.62,4.12,7.95,8.8,7.95,4.4,0,6.82-2.2,7.95-5.33l7.88,2.34Zm-8.8-11.43c-.14-3.48-2.41-6.89-7.81-6.89-4.9,0-7.6,3.69-7.81,6.89h15.62Z"/><path class="b" d="M256.47,49.6c-1.07-.21-1.99-.28-2.84-.28-4.83,0-9.02,2.34-9.02,9.87v15.98h-9.44V40.23h9.16v5.18c2.13-4.62,6.96-5.47,9.94-5.47,.78,0,1.49,.07,2.2,.14v9.51Z"/></g></g><g><path class="b" d="M294.6,21.89c0,.16-.02,.32-.02,.48h0c-14.91,3.22-18.9,6.53-22.12,21.41-.18,0-.37-.01-.55-.02s-.11-21.87-.11-21.87"/><path class="b" d="M248.99,21.89c0-.16,.02-.32,.02-.48h0c14.91-3.22,18.9-6.53,22.12-21.41,.18,0,.37,.01,.55,.02s.11,21.87,.11,21.87"/></g></svg>