<svg width="50" height="29" viewBox="0 0 50 29" fill="none" xmlns="http://www.w3.org/2000/svg">
<g clip-path="url(#clip0_96_347)">
<g clip-path="url(#clip1_96_347)">
<g clip-path="url(#clip2_96_347)">
<mask id="mask0_96_347" style="mask-type:luminance" maskUnits="userSpaceOnUse" x="0" y="4" width="50" height="21">
<path d="M0.878906 4.28833H49.4387V24.382H0.878906V4.28833Z" fill="white"/>
</mask>
<g mask="url(#mask0_96_347)">
<path d="M20.2763 15.7308C20.2511 15.915 20.2205 16.0986 20.1825 16.28C18.3406 17.9383 16.5115 19.6798 14.7656 21.2499C13.5337 22.3662 12.342 23.4019 11.2084 24.3371C10.9562 24.3614 10.703 24.3759 10.4496 24.3806L10.257 24.3823H10.2291C11.6488 23.2961 13.1743 22.0411 14.7659 20.6373C16.5419 19.0901 18.3967 17.369 20.2763 15.7308ZM20.2763 14.0563V14.5121C18.4064 16.1335 16.5461 17.8543 14.7756 19.3909C12.6769 21.2343 10.6924 22.8231 8.92445 24.1032C8.61245 24.0588 8.30285 23.999 7.99679 23.924C10.3573 22.3541 12.6179 20.6389 14.7656 18.7884C16.5461 17.2937 18.3964 15.6303 20.2763 14.0563ZM19.7181 17.6844C19.6266 17.9522 19.5228 18.2158 19.4072 18.4742C17.8463 20.018 16.3025 21.6004 14.8228 23.0441C14.5979 23.2717 14.3686 23.4948 14.1349 23.7133C13.7715 23.8656 13.3993 23.9958 13.0202 24.1032C13.6292 23.5486 14.231 22.9861 14.8253 22.4159C16.4038 20.9312 18.0487 19.2818 19.7181 17.6844ZM20.2179 12.6609C20.2408 12.7949 20.2609 12.9336 20.2763 13.0701C18.3869 14.5978 16.5101 16.222 14.7374 17.6701C12.5355 19.5113 10.224 21.2173 7.81566 22.7787C7.40542 23.0491 7.00773 23.2969 6.6279 23.545C6.33152 23.4259 6.04519 23.312 5.76415 23.178C6.3999 22.7862 7.08866 22.3869 7.81818 21.9381C10.2311 20.4724 12.5427 18.846 14.7374 17.0701C16.5026 15.6864 18.3487 14.1289 20.2179 12.6609ZM20.1677 11.5446C20.2057 11.678 20.2433 11.8014 20.2763 11.93C18.4787 13.3659 16.7066 14.8701 15.0073 16.2128C12.8228 17.9955 10.5238 19.6331 8.12516 21.1151C6.99685 21.8106 5.98184 22.3874 5.09576 22.9869C4.8461 22.8298 4.60353 22.6617 4.36876 22.4831C5.40889 21.745 6.6787 21.105 8.11512 20.2686C10.5222 18.8769 12.8264 17.3143 15.01 15.593C16.6736 14.3156 18.4009 12.8998 20.1677 11.5446ZM19.5646 10.4283C19.6165 10.538 19.6684 10.6655 19.7181 10.7875C18.0933 12.05 16.4908 13.36 14.9528 14.5299C12.8145 16.2195 10.5591 17.7554 8.20359 19.1261C6.45236 20.1464 4.9565 20.8726 3.82455 21.8706C3.66207 21.7283 3.50725 21.5776 3.36073 21.419L3.25244 21.299L3.38863 21.162C4.5577 20.0418 6.21459 19.353 8.19605 18.2727C10.5572 16.9989 12.8162 15.5441 14.9526 13.9213C16.4437 12.8262 17.9917 11.6035 19.5646 10.4283ZM18.6774 9.312C18.7452 9.42447 18.8156 9.53917 18.8809 9.65666C17.4319 10.7255 15.998 11.8142 14.6118 12.813C12.4406 14.4221 10.1514 15.8654 7.76348 17.1307C5.75467 18.2046 4.07461 18.8939 2.89159 20.025C2.65988 20.2485 2.44896 20.4926 2.26143 20.7542C2.10794 20.5795 1.98514 20.3998 1.85677 20.2148C2.12362 19.7244 2.47672 19.2862 2.89913 18.9212C4.07963 17.8901 5.7569 17.2956 7.76627 16.2968C10.154 15.1243 12.4411 13.7571 14.6043 12.2088C15.9151 11.3096 17.2887 10.2985 18.6774 9.312ZM45.3172 12.2167C47.5476 12.2167 49.2053 13.7237 49.4314 15.9842H46.6886C46.6434 15.0951 46.1159 14.5375 45.3323 14.5375C44.428 14.5375 43.9006 15.2307 43.9006 16.4213C43.9006 17.6419 44.413 18.3201 45.3323 18.3201C46.131 18.3201 46.6283 17.7776 46.6886 16.8583H49.4314C49.2053 19.1791 47.6229 20.6259 45.3172 20.6259C42.906 20.6259 41.2332 18.8928 41.2332 16.4213C41.2332 14.01 42.9813 12.2167 45.3172 12.2167ZM26.6602 17.2501C27.6247 17.2501 28.2878 17.9283 28.2878 18.9079C28.2878 19.8723 27.6247 20.5505 26.6602 20.5505C25.6957 20.5505 25.0175 19.8723 25.0175 18.9079C25.0175 17.9283 25.6957 17.2501 26.6602 17.2501ZM31.6937 12.3674V20.4752H29.1167V12.3674H31.6937ZM37.7821 12.2167C39.3795 12.2167 40.5098 13.2866 40.5098 15.2608V20.4752H37.9328V16.1199C37.9328 15.0951 37.5711 14.5375 36.7874 14.5375C36.1545 14.5375 35.5818 14.9896 35.5818 16.2103V20.4752H33.0048V12.3674H35.3708V13.3469C36.0038 12.6386 36.7573 12.2167 37.7821 12.2167ZM18.0738 7.9166C18.1569 8.02433 18.2398 8.13373 18.3227 8.24452C17.1185 9.09934 15.9316 9.95918 14.782 10.7442C12.6298 12.2684 10.3584 13.617 7.98981 14.7769C6.00165 15.7587 4.3322 16.3599 3.1676 17.3933C2.56266 17.9255 2.10149 18.6015 1.82663 19.3588C1.74027 19.2159 1.65736 19.0709 1.57797 18.924C1.79032 17.8865 2.35464 16.9543 3.17542 16.2851C4.34476 15.351 6.00416 14.8392 7.99483 13.9397C10.3662 12.8802 12.6391 11.613 14.7871 10.1529C15.857 9.44233 16.9566 8.67933 18.0738 7.9166ZM16.2349 5.96305C16.377 6.06184 16.514 6.16594 16.648 6.27255C16.1093 6.62524 15.5666 6.97179 15.0201 7.31212C12.8756 8.70885 10.6065 9.9043 8.24182 10.8832C6.25533 11.7048 4.59509 12.141 3.4277 13.0109C2.7942 13.4775 2.30469 14.1071 1.98877 15.0102C2.2402 14.656 2.54823 14.3456 2.90052 14.0915C4.09498 13.2336 5.78481 12.7932 7.8179 11.9607C10.2345 10.9734 12.5531 9.7614 14.7432 8.3408C15.554 7.83651 16.3589 7.32297 17.1578 6.80029C17.2695 6.90466 17.3789 7.01406 17.4858 7.12374C16.5556 7.75502 15.6408 8.37848 14.7435 8.95896C12.5491 10.4437 10.2313 11.7374 7.81566 12.8259C5.78509 13.7399 4.08745 14.2668 2.89299 15.2343C2.36386 15.6552 1.93352 16.1893 1.61899 16.8971C1.59667 17.1734 1.58327 17.4656 1.57936 17.7756L1.57825 17.9506V16.9914C1.37982 17.4611 1.23135 18.0053 1.13647 18.6399L1.11358 18.8007L1.01953 18.6098C1.05777 17.3612 1.26289 16.4087 1.60839 15.6675C1.75351 13.6573 2.40041 12.5566 3.43217 11.8795C4.59956 11.1137 6.25254 10.7688 8.24405 10.0284C10.6093 9.1457 12.8795 8.0267 15.0201 6.68838C15.4197 6.45674 15.825 6.21506 16.2349 5.96305ZM14.693 5.12581C14.82 5.18721 14.945 5.25056 15.0687 5.31614L15.2528 5.41661L14.9531 5.59494C12.8217 6.91888 10.5646 8.02878 8.21475 8.90845C6.24026 9.64522 4.59035 10.0022 3.42854 10.7744C2.26674 11.5466 1.59527 12.8747 1.57797 15.4517C1.57797 14.9647 1.57797 14.4755 1.59025 13.9885C1.60532 11.5315 2.27399 10.3156 3.43608 9.63768C4.59788 8.95952 6.24026 8.70193 8.22228 8.04972C10.4753 7.30351 12.644 6.32353 14.693 5.12581ZM12.3806 4.56765C12.6926 4.63324 12.9973 4.71417 13.2993 4.80766C11.557 5.70407 9.73985 6.44663 7.86841 7.0269C5.82862 7.66571 4.12429 7.92832 2.92648 8.6023C1.74988 9.26455 1.06 10.4501 1.02121 12.8103L1.02009 12.9127L1.02735 11.5008C1.02039 10.854 1.09703 10.209 1.25535 9.58187C1.65379 8.86836 2.13571 8.20479 2.69094 7.60515C2.76992 7.5591 2.85113 7.51696 2.93401 7.47873C4.13182 6.89824 5.8236 6.73387 7.87092 6.17599C9.41623 5.76618 10.9247 5.2282 12.3806 4.56765ZM30.3826 9.00669C31.3621 9.00669 32.0403 9.62457 32.0403 10.4836C32.0403 11.3275 31.3621 11.9454 30.3826 11.9454C29.403 11.9454 28.7248 11.3275 28.7248 10.4836C28.7248 9.62457 29.403 9.00669 30.3826 9.00669ZM10.2294 4.28857C9.52562 4.56958 8.80759 4.81355 8.07828 5.01948C7.13611 5.30331 6.26426 5.49392 5.48508 5.68397C6.93629 4.79315 8.56695 4.31369 10.2294 4.28857Z" fill="#161616"/>
</g>
</g>
</g>
</g>
<defs>
<clipPath id="clip0_96_347">
<rect width="48.5598" height="27.8207" fill="white" transform="translate(0.87793 0.424805)"/>
</clipPath>
<clipPath id="clip1_96_347">
<rect width="48.5598" height="27.8207" fill="white" transform="translate(0.87793 0.424561)"/>
</clipPath>
<clipPath id="clip2_96_347">
<rect width="48.5598" height="20.0937" fill="white" transform="translate(0.87793 4.28809)"/>
</clipPath>
</defs>
</svg>
