<svg width="36" height="37" viewBox="0 0 36 37" fill="none" xmlns="http://www.w3.org/2000/svg">
<g clip-path="url(#clip0_96_376)">
<mask id="mask0_96_376" style="mask-type:luminance" maskUnits="userSpaceOnUse" x="0" y="0" width="36" height="37">
<path d="M36 0.5H0V36.5H36V0.5Z" fill="white"/>
</mask>
<g mask="url(#mask0_96_376)">
<path d="M2.56492 30.3957C5.27572 34.8957 11.7989 35.0055 14.5061 30.4965C15.3632 29.0684 15.845 27.4467 15.9065 25.7823L15.9929 23.4765C15.9929 23.4765 11.8799 27.2295 10.1843 26.9991C9.61192 26.9217 10.0475 25.8597 10.2545 25.3341C11.0411 23.3541 15.8201 18.4833 15.8201 18.4833C15.8201 18.4833 16.1999 11.5839 16.8749 9.69208C17.2241 8.71288 17.6291 8.26468 17.9999 8.08648C18.3707 8.26648 18.7757 8.71288 19.1249 9.69208C19.7999 11.5839 20.1797 18.4833 20.1797 18.4833C20.1797 18.4833 24.9587 23.3433 25.7453 25.3341C25.9523 25.8597 26.3879 26.9217 25.8155 26.9991C24.1181 27.2295 20.0069 23.4765 20.0069 23.4765L20.0933 25.7823C20.1583 27.5405 20.6922 29.2496 21.6395 30.7323C24.3575 34.9839 30.6665 34.8723 33.3215 30.5829C35.0529 27.7855 35.9798 24.5649 35.9999 21.2751C36.0737 11.5047 28.2023 3.37048 18.4319 3.14188C15.2112 3.06475 12.0287 3.85346 9.21671 5.4257C6.4047 6.99793 4.06619 9.29606 2.44524 12.0803C0.824298 14.8645 -0.0196898 18.0327 0.00136093 21.2544C0.0224118 24.476 0.90773 27.6329 2.56492 30.3957Z" fill="#161616"/>
<mask id="mask1_96_376" style="mask-type:luminance" maskUnits="userSpaceOnUse" x="0" y="3" width="36" height="31">
<path d="M2.56492 30.3957C5.27572 34.8957 11.7989 35.0055 14.5061 30.4965C15.3632 29.0684 15.845 27.4467 15.9065 25.7823L15.9929 23.4765C15.9929 23.4765 11.8799 27.2295 10.1843 26.9991C9.61192 26.9217 10.0475 25.8597 10.2545 25.3341C11.0411 23.3541 15.8201 18.4833 15.8201 18.4833C15.8201 18.4833 16.1999 11.5839 16.8749 9.69208C17.2241 8.71288 17.6291 8.26468 17.9999 8.08648C18.3707 8.26648 18.7757 8.71288 19.1249 9.69208C19.7999 11.5839 20.1797 18.4833 20.1797 18.4833C20.1797 18.4833 24.9587 23.3433 25.7453 25.3341C25.9523 25.8597 26.3879 26.9217 25.8155 26.9991C24.1181 27.2295 20.0069 23.4765 20.0069 23.4765L20.0933 25.7823C20.1583 27.5405 20.6922 29.2496 21.6395 30.7323C24.3575 34.9839 30.6665 34.8723 33.3215 30.5829C35.0529 27.7855 35.9798 24.5649 35.9999 21.2751C36.0737 11.5047 28.2023 3.37048 18.4319 3.14188C15.2112 3.06475 12.0287 3.85346 9.21671 5.4257C6.4047 6.99793 4.06619 9.29606 2.44524 12.0803C0.824298 14.8645 -0.0196898 18.0327 0.00136093 21.2544C0.0224118 24.476 0.90773 27.6329 2.56492 30.3957Z" fill="white"/>
</mask>
<g mask="url(#mask1_96_376)">
<path d="M2.56492 30.3957C5.27572 34.8957 11.7989 35.0055 14.5061 30.4965C15.3632 29.0684 15.845 27.4467 15.9065 25.7823L15.9929 23.4765C15.9929 23.4765 11.8799 27.2295 10.1843 26.9991C9.61192 26.9217 10.0475 25.8597 10.2545 25.3341C11.0411 23.3541 15.8201 18.4833 15.8201 18.4833C15.8201 18.4833 16.1999 11.5839 16.8749 9.69208C17.2241 8.71288 17.6291 8.26468 17.9999 8.08648C18.3707 8.26648 18.7757 8.71288 19.1249 9.69208C19.7999 11.5839 20.1797 18.4833 20.1797 18.4833C20.1797 18.4833 24.9587 23.3433 25.7453 25.3341C25.9523 25.8597 26.3879 26.9217 25.8155 26.9991C24.1181 27.2295 20.0069 23.4765 20.0069 23.4765L20.0933 25.7823C20.1583 27.5405 20.6922 29.2496 21.6395 30.7323C24.3575 34.9839 30.6665 34.8723 33.3215 30.5829C35.0529 27.7855 35.9798 24.5649 35.9999 21.2751C36.0737 11.5047 28.2023 3.37048 18.4319 3.14188C15.2112 3.06475 12.0287 3.85346 9.21671 5.4257C6.4047 6.99793 4.06619 9.29606 2.44524 12.0803C0.824298 14.8645 -0.0196898 18.0327 0.00136093 21.2544C0.0224118 24.476 0.90773 27.6329 2.56492 30.3957Z" fill="#161616"/>
</g>
</g>
</g>
<defs>
<clipPath id="clip0_96_376">
<rect width="36" height="36" fill="white" transform="translate(0 0.5)"/>
</clipPath>
</defs>
</svg>
