<svg width="50" height="29" viewBox="0 0 50 29" fill="none" xmlns="http://www.w3.org/2000/svg">
<g clip-path="url(#clip0_96_319)">
<g clip-path="url(#clip1_96_319)">
<g clip-path="url(#clip2_96_319)">
<mask id="mask0_96_319" style="mask-type:luminance" maskUnits="userSpaceOnUse" x="0" y="4" width="49" height="21">
<path d="M0.378906 4.28833H48.9387V24.382H0.378906V4.28833Z" fill="white"/>
</mask>
<g mask="url(#mask0_96_319)">
<path d="M19.7753 15.7308C19.7502 15.915 19.7195 16.0986 19.6815 16.28C17.8396 17.9383 16.0105 19.6798 14.2646 21.2499C13.0327 22.3662 11.8411 23.4019 10.7075 24.3371C10.4552 24.3614 10.202 24.3759 9.94864 24.3806L9.75607 24.3823H9.72816C11.1478 23.2961 12.6733 22.0411 14.2649 20.6373C16.0409 19.0901 17.8957 17.369 19.7753 15.7308ZM19.7753 14.0563V14.5121C17.9055 16.1335 16.0451 17.8543 14.2746 19.3909C12.176 21.2343 10.1914 22.8231 8.42347 24.1032C8.11148 24.0588 7.80188 23.999 7.49581 23.924C9.85635 22.3541 12.117 20.6389 14.2646 18.7884C16.0451 17.2937 17.8954 15.6303 19.7753 14.0563ZM19.2171 17.6844C19.1256 17.9522 19.0219 18.2158 18.9062 18.4742C17.3453 20.018 15.8015 21.6004 14.3218 23.0441C14.097 23.2717 13.8676 23.4948 13.6339 23.7133C13.2705 23.8656 12.8983 23.9958 12.5192 24.1032C13.1282 23.5486 13.73 22.9861 14.3243 22.4159C15.9028 20.9312 17.5477 19.2818 19.2171 17.6844ZM19.717 12.6609C19.7398 12.7949 19.7599 12.9336 19.7753 13.0701C17.8859 14.5978 16.0091 16.222 14.2364 17.6701C12.0345 19.5113 9.72305 21.2173 7.31469 22.7787C6.90444 23.0491 6.50675 23.2969 6.12693 23.545C5.83055 23.4259 5.54421 23.312 5.26318 23.178C5.89892 22.7862 6.58769 22.3869 7.3172 21.9381C9.7301 20.4724 12.0417 18.846 14.2364 17.0701C16.0016 15.6864 17.8477 14.1289 19.717 12.6609ZM19.6667 11.5446C19.7047 11.678 19.7424 11.8014 19.7753 11.93C17.9777 13.3659 16.2056 14.8701 14.5063 16.2128C12.3218 17.9955 10.0228 19.6331 7.62419 21.1151C6.49587 21.8106 5.48086 22.3874 4.59478 22.9869C4.34513 22.8298 4.10255 22.6617 3.86778 22.4831C4.90791 21.745 6.17772 21.105 7.61414 20.2686C10.0212 18.8769 12.3255 17.3143 14.5091 15.593C16.1727 14.3156 17.8999 12.8998 19.6667 11.5446ZM19.0636 10.4283C19.1155 10.538 19.1675 10.6655 19.2171 10.7875C17.5923 12.05 15.9899 13.36 14.4519 14.5299C12.3135 16.2195 10.0581 17.7554 7.70261 19.1261C5.95139 20.1464 4.45552 20.8726 3.32358 21.8706C3.1611 21.7283 3.00627 21.5776 2.85975 21.419L2.75147 21.299L2.88766 21.162C4.05672 20.0418 5.71361 19.353 7.69507 18.2727C10.0562 16.9989 12.3152 15.5441 14.4516 13.9213C15.9427 12.8262 17.4907 11.6035 19.0636 10.4283ZM18.1764 9.312C18.2443 9.42447 18.3146 9.53917 18.3799 9.65666C16.9309 10.7255 15.497 11.8142 14.1108 12.813C11.9397 14.4221 9.65041 15.8654 7.2625 17.1307C5.25369 18.2046 3.57363 18.8939 2.39062 20.025C2.15891 20.2485 1.94799 20.4926 1.76046 20.7542C1.60696 20.5795 1.48417 20.3998 1.35579 20.2148C1.62264 19.7244 1.97575 19.2862 2.39815 18.9212C3.57866 17.8901 5.25592 17.2956 7.26529 16.2968C9.65307 15.1243 11.9401 13.7571 14.1033 12.2088C15.4141 11.3096 16.7877 10.2985 18.1764 9.312ZM44.8162 12.2167C47.0466 12.2167 48.7043 13.7237 48.9304 15.9842H46.1876C46.1424 15.0951 45.6149 14.5375 44.8313 14.5375C43.9271 14.5375 43.3996 15.2307 43.3996 16.4213C43.3996 17.6419 43.912 18.3201 44.8313 18.3201C45.63 18.3201 46.1273 17.7776 46.1876 16.8583H48.9304C48.7043 19.1791 47.122 20.6259 44.8162 20.6259C42.405 20.6259 40.7322 18.8928 40.7322 16.4213C40.7322 14.01 42.4803 12.2167 44.8162 12.2167ZM26.1592 17.2501C27.1237 17.2501 27.7868 17.9283 27.7868 18.9079C27.7868 19.8723 27.1237 20.5505 26.1592 20.5505C25.1947 20.5505 24.5166 19.8723 24.5166 18.9079C24.5166 17.9283 25.1947 17.2501 26.1592 17.2501ZM31.1927 12.3674V20.4752H28.6157V12.3674H31.1927ZM37.2811 12.2167C38.8785 12.2167 40.0088 13.2866 40.0088 15.2608V20.4752H37.4318V16.1199C37.4318 15.0951 37.0701 14.5375 36.2864 14.5375C35.6535 14.5375 35.0808 14.9896 35.0808 16.2103V20.4752H32.5038V12.3674H34.8698V13.3469C35.5028 12.6386 36.2563 12.2167 37.2811 12.2167ZM17.5728 7.9166C17.656 8.02433 17.7389 8.13373 17.8217 8.24452C16.6175 9.09934 15.4306 9.95918 14.2811 10.7442C12.1288 12.2684 9.85738 13.617 7.48883 14.7769C5.50067 15.7587 3.83122 16.3599 2.66663 17.3933C2.06169 17.9255 1.60051 18.6015 1.32565 19.3588C1.2393 19.2159 1.15639 19.0709 1.07699 18.924C1.28934 17.8865 1.85367 16.9543 2.67444 16.2851C3.84378 15.351 5.50319 14.8392 7.49386 13.9397C9.8652 12.8802 12.1381 11.613 14.2861 10.1529C15.3561 9.44233 16.4556 8.67933 17.5728 7.9166ZM15.7339 5.96305C15.876 6.06184 16.013 6.16594 16.147 6.27255C15.6083 6.62524 15.0657 6.97179 14.5191 7.31212C12.3746 8.70885 10.1055 9.9043 7.74084 10.8832C5.75436 11.7048 4.09412 12.141 2.92673 13.0109C2.29322 13.4775 1.80371 14.1071 1.4878 15.0102C1.73922 14.656 2.04726 14.3456 2.39955 14.0915C3.59401 13.2336 5.28383 12.7932 7.31692 11.9607C9.73351 10.9734 12.0521 9.7614 14.2423 8.3408C15.053 7.83651 15.8579 7.32297 16.6569 6.80029C16.7685 6.90466 16.8779 7.01406 16.9848 7.12374C16.0546 7.75502 15.1398 8.37848 14.2425 8.95896C12.0481 10.4437 9.7303 11.7374 7.31469 12.8259C5.28411 13.7399 3.58647 14.2668 2.39201 15.2343C1.86288 15.6552 1.43254 16.1893 1.11802 16.8971C1.09569 17.1734 1.08229 17.4656 1.07839 17.7756L1.07727 17.9506V16.9914C0.878846 17.4611 0.730376 18.0053 0.635489 18.6399L0.612604 18.8007L0.518555 18.6098C0.556789 17.3612 0.761912 16.4087 1.10741 15.6675C1.25253 13.6573 1.89944 12.5566 2.93119 11.8795C4.09858 11.1137 5.75157 10.7688 7.74307 10.0284C10.1083 9.1457 12.3785 8.0267 14.5191 6.68838C14.9188 6.45674 15.324 6.21506 15.7339 5.96305ZM14.192 5.12581C14.319 5.18721 14.444 5.25056 14.5677 5.31614L14.7519 5.41661L14.4521 5.59494C12.3207 6.91888 10.0636 8.02878 7.71377 8.90845C5.73929 9.64522 4.08937 10.0022 2.92757 10.7744C1.76576 11.5466 1.09429 12.8747 1.07699 15.4517C1.07699 14.9647 1.07699 14.4755 1.08927 13.9885C1.10434 11.5315 1.77301 10.3156 2.9351 9.63768C4.09691 8.95952 5.73929 8.70193 7.72131 8.04972C9.97432 7.30351 12.143 6.32353 14.192 5.12581ZM11.8796 4.56765C12.1916 4.63324 12.4964 4.71417 12.7983 4.80766C11.0561 5.70407 9.23887 6.44663 7.36743 7.0269C5.32765 7.66571 3.62331 7.92832 2.4255 8.6023C1.2489 9.26455 0.559021 10.4501 0.520229 12.8103L0.519113 12.9127L0.526369 11.5008C0.519415 10.854 0.596052 10.209 0.754377 9.58187C1.15282 8.86836 1.63473 8.20479 2.18996 7.60515C2.26894 7.5591 2.35015 7.51696 2.43304 7.47873C3.63084 6.89824 5.32262 6.73387 7.36995 6.17599C8.91526 5.76618 10.4237 5.2282 11.8796 4.56765ZM29.8816 9.00669C30.8611 9.00669 31.5393 9.62457 31.5393 10.4836C31.5393 11.3275 30.8611 11.9454 29.8816 11.9454C28.902 11.9454 28.2239 11.3275 28.2239 10.4836C28.2239 9.62457 28.902 9.00669 29.8816 9.00669ZM9.72844 4.28857C9.02464 4.56958 8.30661 4.81355 7.5773 5.01948C6.63513 5.30331 5.76329 5.49392 4.9841 5.68397C6.43531 4.79315 8.06597 4.31369 9.72844 4.28857Z" fill="#161616"/>
</g>
</g>
</g>
</g>
<defs>
<clipPath id="clip0_96_319">
<rect width="48.5598" height="27.8207" fill="white" transform="translate(0.37793 0.424805)"/>
</clipPath>
<clipPath id="clip1_96_319">
<rect width="48.5598" height="27.8207" fill="white" transform="translate(0.37793 0.424561)"/>
</clipPath>
<clipPath id="clip2_96_319">
<rect width="48.5598" height="20.0937" fill="white" transform="translate(0.37793 4.28809)"/>
</clipPath>
</defs>
</svg>
