<svg width="107" height="61" viewBox="0 0 107 61" fill="none" xmlns="http://www.w3.org/2000/svg">
<path d="M75.1452 19.6901C75.6384 20.4272 76.1118 21.3365 75.879 22.311C75.0756 21.8511 74.4294 21.1004 73.917 20.3592C73.401 19.613 72.8652 18.8196 72.6816 17.8999C73.695 18.1591 74.6022 18.8786 75.1452 19.6901Z" fill="#161616"/>
<path d="M31.589 22.3097C31.3568 21.3351 31.8312 20.4262 32.3253 19.6895C32.8692 18.8785 33.7767 18.1596 34.7902 17.9011C34.6061 18.8206 34.0694 19.6138 33.5529 20.3594C33.0398 21.1003 32.3927 21.8506 31.589 22.3097Z" fill="#161616"/>
<path d="M30.8817 24.1787C31.0629 23.4068 31.0589 22.5619 30.8864 21.8379C30.7346 21.2017 30.5138 20.3023 29.7871 19.9988C29.2589 20.8461 29.0465 22 29.3544 22.8646C29.577 23.4899 29.9773 24.3168 30.8075 24.4448C31.5693 24.6204 32.3397 24.214 32.9481 23.8785C33.6246 23.5055 34.2872 22.912 34.6898 22.2065C33.9513 21.8337 33.1102 22.1362 32.4774 22.4261C31.7954 22.7387 31.1688 23.4092 30.8817 24.1787Z" fill="#161616"/>
<path d="M45.6666 24.9206V21.0454H44.3436V22.4573H42.3591V21.0454H41.0361V24.9206H42.3591V23.5137H44.3436V24.9206H45.6666Z" fill="#161616"/>
<path d="M50.0531 21.0454H51.5143L49.441 23.642V24.9206H48.1131V23.6469L46.0645 21.0454H47.57L48.7943 22.5955L50.0531 21.0454Z" fill="#161616"/>
<path fill-rule="evenodd" clip-rule="evenodd" d="M56.1218 21.3761C56.3835 21.5835 56.5316 21.934 56.5316 22.4425C56.5316 22.8571 56.4279 23.1681 56.2304 23.3853C55.9638 23.6914 55.5245 23.8296 54.9519 23.8346C54.7742 23.8395 53.2537 23.8346 53.2537 23.8346V24.9206H51.9258V21.0454H54.9321C55.4652 21.0454 55.8701 21.154 56.1218 21.3761ZM55.1394 22.7436C55.179 22.6745 55.1987 22.5856 55.1987 22.4622C55.1987 22.3338 55.174 22.2252 55.1296 22.166C55.0457 22.0426 54.8877 21.9833 54.631 21.9833H53.2439V22.9311H54.6211C54.8976 22.9311 55.0605 22.867 55.1394 22.7436Z" fill="#161616"/>
<path d="M61.1429 23.9579V24.9206H57.0605V21.0454H61.1087V22.013H58.3637V22.5116H61.0295V23.4544H58.3637V23.9579H61.1429Z" fill="#161616"/>
<path fill-rule="evenodd" clip-rule="evenodd" d="M66.0995 21.4403C66.2777 21.623 66.3611 21.8747 66.3611 22.2253C66.3611 22.5264 66.2873 22.7831 66.1637 22.9559C66.0257 23.1434 65.8133 23.3014 65.5517 23.3409L66.7217 24.9206H65.2505L64.2881 23.5532H63.0887V24.9206H61.7705V21.0454H64.8557C65.4677 21.0454 65.8679 21.1935 66.0995 21.4403ZM65.0333 22.551C65.0681 22.4918 65.0777 22.4128 65.0777 22.3487C65.0777 22.2746 65.0681 22.1956 65.0333 22.1462C64.9643 22.0179 64.8263 21.9833 64.6187 21.9833H63.0935V22.6893H64.6433C64.8557 22.6893 64.9841 22.6498 65.0333 22.551Z" fill="#161616"/>
<path d="M60.4356 29.7807C60.4356 28.8949 59.8729 28.4293 58.5603 28.2871C58.3469 28.2612 57.7198 28.1965 57.3253 28.1642C56.3102 28.0543 56.0063 27.9961 56.0063 27.7375C56.0063 27.5047 56.2456 27.3948 57.1572 27.3948C57.8038 27.3948 58.1659 27.5176 58.3081 27.7051C58.3793 27.7957 58.4051 27.8668 58.4116 27.9379H60.2738C60.2543 27.7827 60.1897 27.5629 60.0862 27.369C59.75 26.7223 58.9418 26.2051 57.2025 26.2051C55.2433 26.2051 54.17 26.8969 54.17 27.8022C54.17 28.675 54.7778 29.1858 56.4201 29.3346C56.6058 29.3505 57.0046 29.3881 57.3311 29.419L57.3513 29.4209L57.355 29.4213L57.3564 29.4214L57.5323 29.438C58.3922 29.5285 58.625 29.5867 58.625 29.8583C58.625 30.1104 58.3987 30.2462 57.4482 30.2462C56.7111 30.2462 56.2779 30.1363 56.1227 29.9488C56.0581 29.8712 56.0128 29.7548 55.9999 29.6772H54.1377C54.1571 29.8065 54.1894 30.0135 54.2605 30.1816C54.5774 30.8928 55.405 31.4359 57.3253 31.4359C59.3879 31.4359 60.4356 30.854 60.4356 29.7807Z" fill="#161616"/>
<path fill-rule="evenodd" clip-rule="evenodd" d="M47.2351 30.8421C47.4291 30.6158 47.526 30.2731 47.526 29.924C47.526 29.6265 47.4485 29.342 47.2868 29.1545C47.0928 28.9023 46.7501 28.7213 46.3881 28.6761C46.6338 28.6437 46.8665 28.5144 47.0023 28.3463C47.1704 28.1459 47.248 27.8743 47.248 27.5445C47.248 27.2148 47.151 26.9238 46.9312 26.704C46.6855 26.4518 46.2393 26.2837 45.5411 26.2837H41.1572V31.3594H45.6639C46.3816 31.3594 46.9377 31.2042 47.2351 30.8421ZM45.4505 27.8484C45.4505 27.9713 45.4117 28.0748 45.3471 28.1459C45.2565 28.2299 45.0884 28.2623 44.8686 28.2623H42.8513V27.4346H44.8233C45.069 27.4346 45.2372 27.467 45.3276 27.551C45.4117 27.6221 45.4505 27.7256 45.4505 27.8484ZM45.6445 30.0727C45.5411 30.1697 45.36 30.2085 45.0561 30.2085H42.8513V29.3615H45.0755C45.36 29.3615 45.5281 29.4002 45.6251 29.4843C45.7027 29.5619 45.735 29.6589 45.735 29.7882C45.735 29.9111 45.7091 30.008 45.6445 30.0727Z" fill="#161616"/>
<path d="M53.6138 30.0986V31.3594H48.2666V26.2837H53.5686V27.551H49.9735V28.2041H53.4651V29.439H49.9735V30.0986H53.6138Z" fill="#161616"/>
<path d="M66.7281 27.5575V26.2837H60.6699V27.5575H62.8101V31.3594H64.5813V27.5575H66.7281Z" fill="#161616"/>
<path d="M66.5743 35.8503H66.2893L66.2689 35.5759C66.1819 35.7148 65.9977 35.8815 65.6089 35.8815C64.9519 35.8815 64.6465 35.4855 64.6465 34.4744C64.6465 33.6928 64.8409 33.064 65.6431 33.064C66.3385 33.064 66.5503 33.5191 66.5605 34.009H66.2131C66.2029 33.6893 66.0601 33.394 65.6503 33.394C65.1571 33.394 65.0143 33.6893 65.0143 34.4849C65.0143 35.3153 65.1919 35.5759 65.6575 35.5759C65.9839 35.5759 66.1747 35.3952 66.2377 35.1798V34.6621H65.5357V34.3459H66.5707V35.1451C66.5707 35.3838 66.5731 35.6386 66.5737 35.7667L66.5743 35.8277V35.8503Z" fill="#161616"/>
<path fill-rule="evenodd" clip-rule="evenodd" d="M41.2227 35.1583H42.1955L42.397 35.8497H42.7653L41.9592 33.0981H41.5111L40.6494 35.8497H41.0142L41.2227 35.1583ZM42.1086 34.8491H41.3165C41.3165 34.8491 41.6604 33.7374 41.6674 33.7131C41.6709 33.6957 41.7265 33.449 41.7265 33.449L41.7649 33.6315L41.782 33.7131C41.7855 33.7304 42.1086 34.8491 42.1086 34.8491Z" fill="#161616"/>
<path d="M45.4016 33.0981H45.7352L45.0855 35.8497H44.672C44.672 35.8497 44.21 33.7096 44.21 33.6192C44.2065 33.7096 43.734 35.8497 43.734 35.8497H43.3206L42.6709 33.0981H43.0461C43.0461 33.0981 43.5498 35.2764 43.5498 35.3633C43.5498 35.2764 44.012 33.0981 44.012 33.0981H44.4254C44.4254 33.0981 44.8874 35.2799 44.8874 35.3633C44.8874 35.2799 45.4016 33.0981 45.4016 33.0981Z" fill="#161616"/>
<path fill-rule="evenodd" clip-rule="evenodd" d="M47.1622 35.1583H46.1895L45.981 35.8497H45.6162L46.4778 33.0981H46.926L47.7321 35.8497H47.3638L47.1622 35.1583ZM46.2833 34.8491H47.0754C47.0754 34.8491 46.7523 33.7304 46.7488 33.7131L46.7226 33.5879L46.6932 33.449C46.6932 33.449 46.6377 33.6957 46.6342 33.7131C46.6272 33.7374 46.2833 34.8491 46.2833 34.8491Z" fill="#161616"/>
<path fill-rule="evenodd" clip-rule="evenodd" d="M49.0707 33.0981C49.4946 33.0981 49.7239 33.2961 49.7239 33.8729C49.7239 34.3628 49.5397 34.526 49.3486 34.5816L49.8768 35.8497H49.4946L49.0047 34.6511H48.3377V35.8497H47.9902V33.0981H49.0707ZM49.0186 34.3384C49.2931 34.3384 49.3591 34.196 49.3591 33.8833C49.3591 33.5289 49.2549 33.4212 49.0012 33.4212H48.3411V34.3384H49.0186Z" fill="#161616"/>
<path fill-rule="evenodd" clip-rule="evenodd" d="M52.0371 34.4288C52.0371 35.0784 51.9885 35.3424 51.8496 35.5405C51.7106 35.7316 51.4917 35.8497 51.1373 35.8497H50.1924V33.0981H51.113C51.4605 33.0981 51.7314 33.2024 51.8565 33.39C51.9955 33.5915 52.0371 33.8416 52.0371 34.4288ZM51.0644 35.5231C51.2763 35.5231 51.4535 35.4675 51.5438 35.3459C51.6411 35.2139 51.6689 34.9464 51.6689 34.4288C51.6689 33.9945 51.6446 33.7617 51.5438 33.6123C51.45 33.4838 51.2694 33.4281 51.0575 33.4281H50.5433V35.5231H51.0644Z" fill="#161616"/>
<path d="M55.7024 33.0981H56.0359L55.3863 35.8497H54.9728C54.9728 35.8497 54.5107 33.7096 54.5107 33.6192C54.5073 33.7096 54.0348 35.8497 54.0348 35.8497H53.6214L52.9717 33.0981H53.3469C53.3469 33.0981 53.8506 35.2764 53.8506 35.3633C53.8506 35.2764 54.3127 33.0981 54.3127 33.0981H54.7261C54.7261 33.0981 55.1882 35.2799 55.1882 35.3633C55.1882 35.2799 55.7024 33.0981 55.7024 33.0981Z" fill="#161616"/>
<path d="M56.6504 33.0981V35.8497H56.2891V33.0981H56.6504Z" fill="#161616"/>
<path d="M58.9119 33.0981V35.8497H58.5123L57.4874 33.7165V35.8497H57.1504V33.0981H57.5708L58.5714 35.2V33.0981H58.9119Z" fill="#161616"/>
<path d="M61.1647 33.0981V35.8497H60.7651L59.7403 33.7165V35.8497H59.4033V33.0981H59.8237L60.8245 35.2V33.0981H61.1647Z" fill="#161616"/>
<path d="M62.0174 33.0981V35.8497H61.6562V33.0981H62.0174Z" fill="#161616"/>
<path d="M64.2792 33.0981V35.8497H63.8796L62.8548 33.7165V35.8497H62.5176V33.0981H62.9382L63.939 35.2V33.0981H64.2792Z" fill="#161616"/>
<path d="M45.1334 41.2737L44.7353 40.0483L44.3371 41.2737H43.0488L44.0911 42.031L43.693 43.2563L44.7353 42.499L45.7776 43.2563L45.3795 42.031L46.4218 41.2737H45.1334Z" fill="#161616"/>
<path d="M49.7375 41.2737L49.3313 40.0483L48.925 41.2737H47.6104L48.674 42.0309L48.2677 43.2562L49.3313 42.499L50.3949 43.2562L49.9886 42.0309L51.0522 41.2737H49.7375Z" fill="#161616"/>
<path d="M54.2981 41.2737L53.8918 40.0483L53.4856 41.2737H52.1709L53.2345 42.0309L52.8282 43.2562L53.8918 42.499L54.9554 43.2562L54.5491 42.0309L55.6127 41.2737H54.2981Z" fill="#161616"/>
<path d="M58.8576 41.2737L58.4514 40.0483L58.0451 41.2737H56.7305L57.794 42.0309L57.3878 43.2562L58.4514 42.499L59.5149 43.2562L59.1087 42.0309L60.1723 41.2737H58.8576Z" fill="#161616"/>
<path d="M63.4457 41.2737L63.0479 40.0483L62.6495 41.2737H61.3613L62.4035 42.0309L62.0057 43.2562L63.0479 42.499L64.0901 43.2562L63.6917 42.0309L64.7345 41.2737H63.4457Z" fill="#161616"/>
<path d="M28.5363 26.2623C28.9109 26.8339 29.4906 27.5498 30.3359 27.5294C31.1046 27.5678 31.7686 27.0432 32.2916 26.6054C32.8548 26.1338 33.3632 25.4443 33.5778 24.6988C32.7916 24.47 32.0389 24.8938 31.4776 25.2934C30.8915 25.7108 30.4407 26.4748 30.3439 27.2591C30.3366 26.4733 30.1239 25.6617 29.781 25.0079C29.4675 24.4102 29.0307 23.6022 28.2513 23.4407C27.9442 24.3707 28.0422 25.5087 28.5363 26.2623Z" fill="#161616"/>
<path d="M30.5855 30.6078C29.801 30.7393 29.0358 30.2586 28.5388 29.6932C27.899 28.9653 27.5183 27.9888 27.5959 27.0112C28.4018 27.0317 29.0122 27.7284 29.4634 28.2552C29.9492 28.8225 30.3473 29.569 30.5383 30.339C30.4543 29.5716 30.712 28.7429 31.1902 28.2309C31.6519 27.7366 32.2985 27.198 33.1031 27.2844C33.0858 28.0626 32.6957 28.8039 32.2934 29.3592C31.9184 29.8766 31.3408 30.5166 30.5855 30.6078Z" fill="#161616"/>
<path d="M29.1363 33.1934C29.8588 33.6638 30.7351 34.1294 31.656 33.777C32.4115 33.5097 32.8919 32.7492 33.1873 32.0511C33.5003 31.3115 33.7093 30.4587 33.5646 29.6492C32.7344 29.7228 32.046 30.3169 31.6803 31.042C31.2981 31.8 31.2247 32.7023 31.5184 33.497C31.0845 32.6794 30.45 32.0179 29.7779 31.4066C29.1669 30.8509 28.2868 30.2656 27.4004 30.3757C27.5691 31.4716 28.2378 32.6085 29.1363 33.1934Z" fill="#161616"/>
<path d="M33.5169 36.7392C34.2279 36.3142 34.514 35.4198 34.631 34.6534C34.757 33.8269 34.7516 32.9154 34.4084 32.1313C33.5835 32.3617 33.0173 33.1042 32.8303 33.9174C32.6328 34.7765 32.7995 35.6922 33.2799 36.4237C32.6412 35.6909 31.7919 35.0859 30.978 34.6616C30.1919 34.2518 29.2274 33.7575 28.2832 34.056C28.7385 35.1672 29.7124 36.2017 30.7918 36.6296C31.6277 36.9609 32.6447 37.2886 33.5169 36.7392Z" fill="#161616"/>
<path d="M36.8884 37.0274C36.9927 37.8251 36.9898 38.837 36.3704 39.451C35.5964 40.2432 34.3986 40.0904 33.4747 39.9161C32.2344 39.6819 30.8382 38.8359 30.0898 37.7096C31.0038 37.2063 32.1215 37.5282 33.0263 37.7888L33.078 37.8036C34.0879 38.0942 35.1642 38.5622 36.0643 39.2017C35.346 38.5526 34.8226 37.5999 34.797 36.6397C34.774 35.7809 35.1468 34.862 35.949 34.4526C36.509 35.1877 36.7713 36.1314 36.8884 37.0274Z" fill="#161616"/>
<path d="M40.483 41.7097C40.9391 40.8414 40.4872 39.8224 40.1271 39.0692C39.7013 38.1788 39.1196 37.2713 38.2871 36.6196C37.4877 37.3085 37.5638 38.2943 37.8014 39.151C38.084 40.1696 39.0638 41.0379 40.0783 41.5327C38.9033 41.0945 37.6201 40.8316 36.3992 40.7539L36.2756 40.7459C35.2947 40.682 34.0179 40.5989 33.2363 41.3167C34.418 42.3212 36.0965 42.9008 37.5759 42.8707C38.5673 42.8506 39.9275 42.7333 40.483 41.7097Z" fill="#161616"/>
<path d="M76.5847 24.1825C76.2985 23.4125 75.6721 22.7411 74.9905 22.4279C74.3575 22.1375 73.5169 21.8345 72.7783 22.2066C73.1803 22.9124 73.8421 23.5064 74.5183 23.8799C75.1261 24.2158 75.8959 24.6227 76.6579 24.4478C77.4883 24.3206 77.8897 23.494 78.1129 22.8686C78.4219 22.0044 78.2107 20.8503 77.6833 20.0024C76.9561 20.3055 76.7341 21.2047 76.5823 21.8408C76.4089 22.565 76.4041 23.4103 76.5847 24.1825Z" fill="#161616"/>
<path d="M75.9881 25.2947C76.5737 25.7123 77.0231 26.4758 77.1197 27.2596C77.1281 26.4742 77.3417 25.6634 77.6849 25.0102C77.9987 24.4127 78.4367 23.6051 79.2161 23.4441C79.5221 24.3745 79.4231 25.5124 78.9281 26.2655C78.5537 26.8361 77.9741 27.5505 77.1305 27.5314C76.3607 27.5707 75.6959 27.0448 75.1727 26.6061C74.6099 26.1341 74.1023 25.4441 73.8887 24.6985C74.6747 24.4703 75.4271 24.8946 75.9881 25.2947Z" fill="#161616"/>
<path d="M76.9218 30.3433C77.0076 29.5753 76.7508 28.7449 76.272 28.2318C75.8112 27.7372 75.165 27.198 74.3604 27.2839C74.3766 28.062 74.766 28.8037 75.168 29.3593C75.5424 29.8768 76.119 30.5168 76.8738 30.609C77.6586 30.7419 78.4247 30.2615 78.9227 29.6962C79.5629 28.9688 79.9446 27.9926 79.8684 27.0149C79.062 27.0348 78.4511 27.7309 77.9993 28.2574C77.5121 28.8251 77.1132 29.5724 76.9218 30.3433Z" fill="#161616"/>
<path d="M75.7789 31.0434C76.1605 31.8018 76.2331 32.7043 75.9385 33.4988C76.3729 32.6813 77.0083 32.0202 77.6809 31.4093C78.2923 30.8541 79.1731 30.2695 80.0593 30.3802C79.8901 31.4761 79.2199 32.6125 78.3211 33.1967C77.5987 33.6659 76.7233 34.1305 75.8035 33.7796C75.0469 33.5128 74.5663 32.7507 74.2711 32.0514C73.9585 31.3116 73.7503 30.4586 73.8961 29.6492C74.7259 29.7235 75.4141 30.318 75.7789 31.0434Z" fill="#161616"/>
<path d="M74.1749 36.4228C74.6549 35.692 74.8223 34.7773 74.6261 33.9186C74.4401 33.1052 73.8743 32.3623 73.0493 32.1313C72.7055 32.9151 72.6995 33.8265 72.8243 34.6532C72.9407 35.4181 73.2251 36.3106 73.9319 36.7372C74.8049 37.2909 75.8243 36.9634 76.6613 36.6322C77.7413 36.2051 78.7163 35.1713 79.1723 34.0604C78.2285 33.7613 77.2637 34.2549 76.4771 34.6641C75.6635 35.0875 74.8139 35.6913 74.1749 36.4228Z" fill="#161616"/>
<path d="M70.5656 37.0246C70.4606 37.8221 70.4624 38.8339 71.0816 39.4485C71.8544 40.2413 73.0526 40.0893 73.9766 39.9156C75.2174 39.6824 76.6142 38.8373 77.3636 37.7116C76.4504 37.2078 75.332 37.5287 74.4272 37.7886L74.375 37.8035C73.3652 38.0932 72.2888 38.5602 71.3882 39.1987C72.107 38.5502 72.6308 37.5983 72.6572 36.6384C72.6812 35.7796 72.3092 34.8605 71.5076 34.4504C70.9466 35.1851 70.6838 36.1287 70.5656 37.0246Z" fill="#161616"/>
<path d="M69.873 42.8675C68.8818 42.8465 67.5216 42.7283 66.9672 41.7042L66.9594 41.6902C66.5166 40.8245 66.9666 39.8128 67.3254 39.0641C67.752 38.174 68.3346 37.267 69.1674 36.616C69.9666 37.3054 69.8892 38.2911 69.651 39.1475C69.3672 40.166 68.3868 41.0337 67.3716 41.5277C68.547 41.0904 69.8304 40.8284 71.0514 40.7516L71.1756 40.7437C72.1566 40.6805 73.4334 40.5985 74.214 41.3167C73.0314 42.3202 71.3526 42.8987 69.873 42.8675Z" fill="#161616"/>
</svg>
