<svg width="69" height="20" viewBox="0 0 69 20" fill="none" xmlns="http://www.w3.org/2000/svg">
<g clip-path="url(#clip0_96_332)">
<mask id="mask0_96_332" style="mask-type:luminance" maskUnits="userSpaceOnUse" x="0" y="0" width="69" height="20">
<path d="M68.4967 0.319336H0.624023V19.2782H68.4967V0.319336Z" fill="white"/>
</mask>
<g mask="url(#mask0_96_332)">
<path d="M10.6568 16.4098C11.881 16.3062 13.0523 15.8649 14.0404 15.135L15.8775 17.3152C14.4738 18.3933 12.7963 19.0569 11.0349 19.2308C9.27347 19.4048 7.49856 19.082 5.9111 18.2993C4.32364 17.5165 2.98704 16.3049 2.05264 14.8017C1.11824 13.2984 0.623354 11.5637 0.624024 9.79371C0.624694 8.02374 1.12089 6.28932 2.05643 4.78681C2.99197 3.28431 4.32949 2.07373 5.91754 1.29215C7.50559 0.510568 9.28074 0.189209 11.042 0.364454C12.8033 0.539699 14.4803 1.20455 15.8832 2.28372L14.0452 4.46399C13.0577 3.73318 11.8868 3.29085 10.6627 3.18624C9.43875 3.08163 8.20974 3.31886 7.11259 3.8715C6.01545 4.42414 5.09326 5.2705 4.44874 6.31631C3.8042 7.36212 3.46265 8.56632 3.4621 9.79478C3.46156 11.0233 3.80204 12.2277 4.44565 13.2742C5.08924 14.3205 6.01068 15.1677 7.10733 15.7213C8.20398 16.275 9.43278 16.5133 10.6568 16.4098Z" fill="#161616"/>
<path d="M16.5295 16.7641L14.6924 14.5838H14.6952C15.3424 13.9658 15.8576 13.2229 16.2096 12.4001C16.5614 11.5772 16.743 10.6917 16.743 9.79672C16.743 8.90181 16.5614 8.01618 16.2096 7.19338C15.8576 6.37058 15.3424 5.62769 14.6952 5.00961L16.5342 2.82935C17.4961 3.71735 18.2637 4.79496 18.7885 5.99429C19.3133 7.1936 19.584 8.48864 19.5836 9.79776C19.5832 11.1069 19.3116 12.4018 18.786 13.6007C18.2603 14.7997 17.492 15.8767 16.5295 16.7641Z" fill="#161616"/>
<path d="M54.3223 0.887451V16.1114H56.1366V0.887451H54.3223Z" fill="#161616"/>
<path fill-rule="evenodd" clip-rule="evenodd" d="M63.3261 14.6728C61.3866 14.6728 59.9059 13.6092 59.5514 11.7323H68.2895C68.3312 11.4612 68.3521 11.1901 68.3521 10.919C68.3521 7.99932 66.3083 5.41333 63.1593 5.41333C59.9059 5.41333 57.6953 7.81162 57.6953 10.8981C57.6953 14.0263 59.9268 16.3829 63.2844 16.3829C65.3699 16.3829 66.9548 15.4445 67.8724 14.0263L66.3292 13.1504C65.8078 14.0055 64.7651 14.6728 63.3261 14.6728ZM59.5514 10.1474C59.8434 8.33299 61.1989 7.12342 63.1593 7.12342C64.7234 7.12342 66.204 8.08273 66.5169 10.1474H59.5514Z" fill="#161616"/>
<path d="M48.4633 16.3829C45.3142 16.3829 42.9785 13.9846 42.9785 10.8981C42.9785 7.81162 45.3142 5.41333 48.4633 5.41333C50.5279 5.41333 52.2797 6.49778 53.0722 8.1453L51.5498 9.0212C51.0284 7.9159 49.8606 7.18598 48.4633 7.18598C46.3778 7.18598 44.7929 8.7918 44.7929 10.8981C44.7929 12.9836 46.3778 14.5894 48.4633 14.5894C49.8814 14.5894 51.0284 13.8595 51.6124 12.775L53.1556 13.6718C52.2797 15.2985 50.5071 16.3829 48.4633 16.3829Z" fill="#161616"/>
<path d="M42.9837 5.49658C41.6699 5.49658 40.3977 5.97624 39.7304 7.43607V5.68427H37.916V16.1116H39.7304V10.5851C39.7304 8.12428 41.4196 7.3318 42.9837 7.39436V5.49658Z" fill="#161616"/>
<path d="M34.8769 3.78571C34.1887 3.78571 33.6465 3.24348 33.6465 2.57613C33.6465 1.90878 34.1887 1.3457 34.8769 1.3457C35.5443 1.3457 36.0865 1.90878 36.0865 2.57613C36.0865 3.24348 35.5443 3.78571 34.8769 3.78571Z" fill="#161616"/>
<path d="M33.959 16.1114V5.68408H35.7733V16.1114H33.959Z" fill="#161616"/>
<path d="M22.6162 10.8981C22.6162 13.9846 24.9519 16.3829 28.101 16.3829C30.1448 16.3829 31.9174 15.2985 32.7933 13.6718L31.2501 12.775C30.6661 13.8595 29.5191 14.5894 28.101 14.5894C26.0155 14.5894 24.4306 12.9836 24.4306 10.8981C24.4306 8.7918 26.0155 7.18598 28.101 7.18598C29.4983 7.18598 30.6661 7.9159 31.1875 9.0212L32.7099 8.1453C31.9174 6.49778 30.1656 5.41333 28.101 5.41333C24.9519 5.41333 22.6162 7.81162 22.6162 10.8981Z" fill="#161616"/>
</g>
</g>
<defs>
<clipPath id="clip0_96_332">
<rect width="67.8727" height="18.9588" fill="white" transform="translate(0.624023 0.31958)"/>
</clipPath>
</defs>
</svg>
