<svg width="68" height="20" viewBox="0 0 68 20" fill="none" xmlns="http://www.w3.org/2000/svg">
<g clip-path="url(#clip0_96_360)">
<mask id="mask0_96_360" style="mask-type:luminance" maskUnits="userSpaceOnUse" x="0" y="0" width="68" height="20">
<path d="M67.9967 0.319336H0.124023V19.2782H67.9967V0.319336Z" fill="white"/>
</mask>
<g mask="url(#mask0_96_360)">
<path d="M10.1568 16.4098C11.381 16.3062 12.5523 15.8649 13.5404 15.135L15.3775 17.3152C13.9738 18.3933 12.2963 19.0569 10.5349 19.2308C8.77347 19.4048 6.99856 19.082 5.4111 18.2993C3.82364 17.5165 2.48704 16.3049 1.55264 14.8017C0.618237 13.2984 0.123354 11.5637 0.124024 9.79371C0.124694 8.02374 0.620889 6.28932 1.55643 4.78681C2.49197 3.28431 3.82949 2.07373 5.41754 1.29215C7.00559 0.510568 8.78074 0.189209 10.542 0.364454C12.3033 0.539699 13.9803 1.20455 15.3832 2.28372L13.5452 4.46399C12.5577 3.73318 11.3868 3.29085 10.1627 3.18624C8.93875 3.08163 7.70974 3.31886 6.61259 3.8715C5.51545 4.42414 4.59326 5.2705 3.94874 6.31631C3.3042 7.36212 2.96265 8.56632 2.9621 9.79478C2.96156 11.0233 3.30204 12.2277 3.94565 13.2742C4.58924 14.3205 5.51068 15.1677 6.60733 15.7213C7.70398 16.275 8.93278 16.5133 10.1568 16.4098Z" fill="#161616"/>
<path d="M16.0295 16.7641L14.1924 14.5838H14.1952C14.8424 13.9658 15.3576 13.2229 15.7096 12.4001C16.0614 11.5772 16.243 10.6917 16.243 9.79672C16.243 8.90181 16.0614 8.01618 15.7096 7.19338C15.3576 6.37058 14.8424 5.62769 14.1952 5.00961L16.0342 2.82935C16.9961 3.71735 17.7637 4.79496 18.2885 5.99429C18.8133 7.1936 19.084 8.48864 19.0836 9.79776C19.0832 11.1069 18.8116 12.4018 18.286 13.6007C17.7603 14.7997 16.992 15.8767 16.0295 16.7641Z" fill="#161616"/>
<path d="M53.8223 0.887451V16.1114H55.6366V0.887451H53.8223Z" fill="#161616"/>
<path fill-rule="evenodd" clip-rule="evenodd" d="M62.8261 14.6728C60.8866 14.6728 59.4059 13.6092 59.0514 11.7323H67.7895C67.8312 11.4612 67.8521 11.1901 67.8521 10.919C67.8521 7.99932 65.8083 5.41333 62.6593 5.41333C59.4059 5.41333 57.1953 7.81162 57.1953 10.8981C57.1953 14.0263 59.4268 16.3829 62.7844 16.3829C64.8699 16.3829 66.4548 15.4445 67.3724 14.0263L65.8292 13.1504C65.3078 14.0055 64.2651 14.6728 62.8261 14.6728ZM59.0514 10.1474C59.3434 8.33299 60.6989 7.12342 62.6593 7.12342C64.2234 7.12342 65.704 8.08273 66.0169 10.1474H59.0514Z" fill="#161616"/>
<path d="M47.9633 16.3829C44.8142 16.3829 42.4785 13.9846 42.4785 10.8981C42.4785 7.81162 44.8142 5.41333 47.9633 5.41333C50.0279 5.41333 51.7797 6.49778 52.5722 8.1453L51.0498 9.0212C50.5284 7.9159 49.3606 7.18598 47.9633 7.18598C45.8778 7.18598 44.2929 8.7918 44.2929 10.8981C44.2929 12.9836 45.8778 14.5894 47.9633 14.5894C49.3814 14.5894 50.5284 13.8595 51.1124 12.775L52.6556 13.6718C51.7797 15.2985 50.0071 16.3829 47.9633 16.3829Z" fill="#161616"/>
<path d="M42.4837 5.49658C41.1699 5.49658 39.8977 5.97624 39.2304 7.43607V5.68427H37.416V16.1116H39.2304V10.5851C39.2304 8.12428 40.9196 7.3318 42.4837 7.39436V5.49658Z" fill="#161616"/>
<path d="M34.3769 3.78571C33.6887 3.78571 33.1465 3.24348 33.1465 2.57613C33.1465 1.90878 33.6887 1.3457 34.3769 1.3457C35.0443 1.3457 35.5865 1.90878 35.5865 2.57613C35.5865 3.24348 35.0443 3.78571 34.3769 3.78571Z" fill="#161616"/>
<path d="M33.459 16.1114V5.68408H35.2733V16.1114H33.459Z" fill="#161616"/>
<path d="M22.1162 10.8981C22.1162 13.9846 24.4519 16.3829 27.601 16.3829C29.6448 16.3829 31.4174 15.2985 32.2933 13.6718L30.7501 12.775C30.1661 13.8595 29.0191 14.5894 27.601 14.5894C25.5155 14.5894 23.9306 12.9836 23.9306 10.8981C23.9306 8.7918 25.5155 7.18598 27.601 7.18598C28.9983 7.18598 30.1661 7.9159 30.6875 9.0212L32.2099 8.1453C31.4174 6.49778 29.6656 5.41333 27.601 5.41333C24.4519 5.41333 22.1162 7.81162 22.1162 10.8981Z" fill="#161616"/>
</g>
</g>
<defs>
<clipPath id="clip0_96_360">
<rect width="67.8727" height="18.9588" fill="white" transform="translate(0.124023 0.31958)"/>
</clipPath>
</defs>
</svg>
