<svg width="54" height="25" viewBox="0 0 54 25" fill="none" xmlns="http://www.w3.org/2000/svg">
<g clip-path="url(#clip0_96_388)">
<path d="M48.6452 1.69061C49.1384 2.42771 49.6118 3.33701 49.379 4.31147C48.5756 3.85163 47.9294 3.10085 47.417 2.35967C46.901 1.61351 46.3652 0.820071 46.1816 -0.0996094C47.195 0.159591 48.1022 0.879111 48.6452 1.69061Z" fill="#161616"/>
<path d="M5.08806 4.30901C4.85586 3.33437 5.33022 2.42543 5.82432 1.68875C6.36822 0.877731 7.27572 0.158871 8.28924 -0.0996094C8.1051 0.819891 7.56846 1.61303 7.05192 2.35871C6.53886 3.09953 5.89176 3.84983 5.08806 4.30901Z" fill="#161616"/>
<path d="M4.3807 6.17795C4.56196 5.40611 4.55794 4.56113 4.38538 3.83717C4.23364 3.20093 4.01284 2.30153 3.28612 1.99805C2.75788 2.84537 2.54554 3.99923 2.8534 4.86383C3.076 5.48921 3.47632 6.31607 4.30654 6.44405C5.06836 6.61967 5.8387 6.21329 6.4471 5.87777C7.1236 5.50475 7.78624 4.91129 8.18884 4.20575C7.4503 3.83297 6.60922 4.13549 5.97646 4.42541C5.29438 4.73795 4.6678 5.40851 4.3807 6.17795Z" fill="#161616"/>
<path d="M19.1657 6.92008V3.04492H17.8427V4.45678H15.8582V3.04492H14.5352V6.92008H15.8582V5.5132H17.8427V6.92008H19.1657Z" fill="#161616"/>
<path d="M23.5531 3.04492H25.0143L22.941 5.64154V6.92008H21.6131V5.64646L19.5645 3.04492H21.07L22.2943 4.59496L23.5531 3.04492Z" fill="#161616"/>
<path fill-rule="evenodd" clip-rule="evenodd" d="M29.6218 3.37564C29.8835 3.583 30.0316 3.93352 30.0316 4.44196C30.0316 4.85662 29.9279 5.1676 29.7304 5.38486C29.4638 5.69092 29.0245 5.8291 28.4519 5.83408C28.2742 5.839 26.7537 5.83408 26.7537 5.83408V6.92008H25.4258V3.04492H28.4321C28.9652 3.04492 29.3701 3.15352 29.6218 3.37564ZM28.6394 4.7431C28.679 4.67398 28.6987 4.58512 28.6987 4.4617C28.6987 4.33336 28.674 4.22476 28.6296 4.16554C28.5457 4.04212 28.3877 3.98284 28.131 3.98284H26.7439V4.93066H28.1211C28.3976 4.93066 28.5605 4.86652 28.6394 4.7431Z" fill="#161616"/>
<path d="M34.6429 5.95744V6.92008H30.5605V3.04492H34.6087V4.01248H31.8637V4.51108H34.5295V5.45392H31.8637V5.95744H34.6429Z" fill="#161616"/>
<path fill-rule="evenodd" clip-rule="evenodd" d="M39.5985 3.43984C39.7767 3.62248 39.8601 3.87424 39.8601 4.22476C39.8601 4.5259 39.7863 4.78258 39.6627 4.95538C39.5247 5.14294 39.3123 5.30092 39.0507 5.3404L40.2207 6.92008H38.7495L37.7871 5.55268H36.5877V6.92008H35.2695V3.04492H38.3547C38.9667 3.04492 39.3669 3.193 39.5985 3.43984ZM38.5323 4.55056C38.5671 4.49134 38.5767 4.41232 38.5767 4.34818C38.5767 4.27414 38.5671 4.19512 38.5323 4.14574C38.4633 4.0174 38.3253 3.98284 38.1177 3.98284H36.5925V4.6888H38.1423C38.3547 4.6888 38.4831 4.64932 38.5323 4.55056Z" fill="#161616"/>
<path d="M33.9356 11.7807C33.9356 10.8949 33.3729 10.4293 32.0603 10.2871C31.8469 10.2612 31.2198 10.1965 30.8253 10.1642C29.8102 10.0543 29.5063 9.99614 29.5063 9.73748C29.5063 9.50474 29.7456 9.39482 30.6572 9.39482C31.3038 9.39482 31.6659 9.51764 31.8081 9.70514C31.8793 9.79568 31.9051 9.86678 31.9116 9.93794H33.7738C33.7543 9.78272 33.6897 9.56288 33.5862 9.36896C33.25 8.72234 32.4418 8.20508 30.7025 8.20508C28.7433 8.20508 27.67 8.89694 27.67 9.80216C27.67 10.675 28.2778 11.1858 29.9201 11.3346C30.1058 11.3505 30.5046 11.3881 30.8311 11.419L30.8513 11.4209L30.855 11.4213L30.8564 11.4214L31.0323 11.438C31.8922 11.5285 32.125 11.5867 32.125 11.8583C32.125 12.1104 31.8987 12.2462 30.9482 12.2462C30.2111 12.2462 29.7779 12.1363 29.6227 11.9488C29.5581 11.8712 29.5128 11.7548 29.4999 11.6772H27.6377C27.6571 11.8065 27.6894 12.0135 27.7605 12.1816C28.0774 12.8928 28.905 13.4359 30.8253 13.4359C32.8879 13.4359 33.9356 12.854 33.9356 11.7807Z" fill="#161616"/>
<path fill-rule="evenodd" clip-rule="evenodd" d="M20.7341 12.8416C20.9281 12.6153 21.0251 12.2726 21.0251 11.9235C21.0251 11.626 20.9475 11.3415 20.7859 11.154C20.5919 10.9018 20.2492 10.7208 19.8871 10.6756C20.1328 10.6432 20.3655 10.5139 20.5013 10.3458C20.6694 10.1454 20.747 9.8738 20.747 9.54404C20.747 9.21428 20.6501 8.92334 20.4302 8.7035C20.1845 8.45132 19.7384 8.2832 19.0401 8.2832H14.6562V13.3589H19.1629C19.8806 13.3589 20.4367 13.2037 20.7341 12.8416ZM18.9496 9.84794C18.9496 9.97082 18.9107 10.0743 18.8461 10.1454C18.7556 10.2294 18.5875 10.2618 18.3676 10.2618H16.3503V9.43412H18.3224C18.5681 9.43412 18.7362 9.46646 18.8267 9.55052C18.9107 9.62162 18.9496 9.72506 18.9496 9.84794ZM19.1435 12.0722C19.0401 12.1692 18.859 12.208 18.5551 12.208H16.3503V11.361H18.5746C18.859 11.361 19.0271 11.3997 19.1241 11.4838C19.2017 11.5614 19.234 11.6584 19.234 11.7877C19.234 11.9106 19.2081 12.0075 19.1435 12.0722Z" fill="#161616"/>
<path d="M27.1128 12.0981V13.3589H21.7656V8.2832H27.0676V9.55052H23.4726V10.2036H26.9641V11.4385H23.4726V12.0981H27.1128Z" fill="#161616"/>
<path d="M40.2271 9.557V8.2832H34.1689V9.557H36.3091V13.3589H38.0803V9.557H40.2271Z" fill="#161616"/>
<path d="M40.0733 17.8508H39.7883L39.7679 17.5764C39.6809 17.7153 39.4967 17.882 39.1079 17.882C38.4509 17.882 38.1455 17.486 38.1455 16.4749C38.1455 15.6933 38.3399 15.0645 39.1421 15.0645C39.8375 15.0645 40.0493 15.5196 40.0595 16.0095H39.7121C39.7019 15.6898 39.5591 15.3945 39.1493 15.3945C38.6561 15.3945 38.5133 15.6898 38.5133 16.4854C38.5133 17.3158 38.6909 17.5764 39.1565 17.5764C39.4829 17.5764 39.6737 17.3957 39.7367 17.1803V16.6626H39.0347V16.3464H40.0697V17.1456C40.0697 17.3843 40.0721 17.6391 40.0727 17.7672L40.0733 17.8282V17.8508Z" fill="#161616"/>
<path fill-rule="evenodd" clip-rule="evenodd" d="M14.7217 17.1578H15.6945L15.896 17.8492H16.2643L15.4582 15.0977H15.0101L14.1484 17.8492H14.5132L14.7217 17.1578ZM15.6076 16.8486H14.8155C14.8155 16.8486 15.1594 15.7369 15.1664 15.7126C15.1699 15.6952 15.2255 15.4485 15.2255 15.4485L15.264 15.631L15.2811 15.7126C15.2845 15.7299 15.6076 16.8486 15.6076 16.8486Z" fill="#161616"/>
<path d="M18.9016 15.0977H19.2352L18.5855 17.8492H18.172C18.172 17.8492 17.71 15.7091 17.71 15.6188C17.7065 15.7091 17.234 17.8492 17.234 17.8492H16.8206L16.1709 15.0977H16.5461C16.5461 15.0977 17.0498 17.276 17.0498 17.3628C17.0498 17.276 17.512 15.0977 17.512 15.0977H17.9254C17.9254 15.0977 18.3874 17.2794 18.3874 17.3628C18.3874 17.2794 18.9016 15.0977 18.9016 15.0977Z" fill="#161616"/>
<path fill-rule="evenodd" clip-rule="evenodd" d="M20.6613 17.1578H19.6885L19.48 17.8492H19.1152L19.9768 15.0977H20.425L21.2311 17.8492H20.8628L20.6613 17.1578ZM19.7823 16.8486H20.5744C20.5744 16.8486 20.2513 15.7299 20.2479 15.7126L20.2216 15.5874L20.1922 15.4485C20.1922 15.4485 20.1367 15.6952 20.1332 15.7126C20.1262 15.7369 19.7823 16.8486 19.7823 16.8486Z" fill="#161616"/>
<path fill-rule="evenodd" clip-rule="evenodd" d="M22.5707 15.0977C22.9946 15.0977 23.2239 15.2957 23.2239 15.8724C23.2239 16.3623 23.0397 16.5255 22.8486 16.5811L23.3768 17.8492H22.9946L22.5047 16.6506H21.8377V17.8492H21.4902V15.0977H22.5707ZM22.5186 16.3379C22.7931 16.3379 22.8591 16.1955 22.8591 15.8828C22.8591 15.5285 22.7549 15.4208 22.5012 15.4208H21.8411V16.3379H22.5186Z" fill="#161616"/>
<path fill-rule="evenodd" clip-rule="evenodd" d="M25.5362 16.4283C25.5362 17.078 25.4876 17.342 25.3486 17.54C25.2096 17.7311 24.9908 17.8492 24.6363 17.8492H23.6914V15.0977H24.612C24.9595 15.0977 25.2305 15.2019 25.3556 15.3895C25.4945 15.591 25.5362 15.8411 25.5362 16.4283ZM24.5634 17.5226C24.7754 17.5226 24.9525 17.4671 25.0428 17.3454C25.1402 17.2134 25.1679 16.9459 25.1679 16.4283C25.1679 15.994 25.1436 15.7612 25.0428 15.6118C24.9491 15.4833 24.7684 15.4277 24.5565 15.4277H24.0423V17.5226H24.5634Z" fill="#161616"/>
<path d="M29.2014 15.0977H29.535L28.8853 17.8492H28.4718C28.4718 17.8492 28.0098 15.7091 28.0098 15.6188C28.0063 15.7091 27.5338 17.8492 27.5338 17.8492H27.1204L26.4707 15.0977H26.8459C26.8459 15.0977 27.3496 17.276 27.3496 17.3628C27.3496 17.276 27.8117 15.0977 27.8117 15.0977H28.2252C28.2252 15.0977 28.6872 17.2794 28.6872 17.3628C28.6872 17.2794 29.2014 15.0977 29.2014 15.0977Z" fill="#161616"/>
<path d="M30.1504 15.0977V17.8492H29.7891V15.0977H30.1504Z" fill="#161616"/>
<path d="M32.4119 15.0977V17.8492H32.0123L30.9874 15.716V17.8492H30.6504V15.0977H31.0708L32.0714 17.1995V15.0977H32.4119Z" fill="#161616"/>
<path d="M34.6637 15.0977V17.8492H34.2641L33.2394 15.716V17.8492H32.9023V15.0977H33.3228L34.3235 17.1995V15.0977H34.6637Z" fill="#161616"/>
<path d="M35.5174 15.0977V17.8492H35.1562V15.0977H35.5174Z" fill="#161616"/>
<path d="M37.7792 15.0977V17.8492H37.3796L36.3548 15.716V17.8492H36.0176V15.0977H36.4382L37.439 17.1995V15.0977H37.7792Z" fill="#161616"/>
<path d="M18.6334 23.2741L18.2353 22.0488L17.8371 23.2741H16.5488L17.5911 24.0315L17.193 25.2568L18.2353 24.4995L19.2776 25.2568L18.8795 24.0315L19.9218 23.2741H18.6334Z" fill="#161616"/>
<path d="M23.2375 23.2742L22.8313 22.0488L22.425 23.2742H21.1104L22.174 24.0314L21.7677 25.2567L22.8313 24.4995L23.8949 25.2567L23.4886 24.0314L24.5522 23.2742H23.2375Z" fill="#161616"/>
<path d="M27.7971 23.2742L27.3908 22.0488L26.9846 23.2742H25.6699L26.7335 24.0314L26.3272 25.2567L27.3908 24.4995L28.4544 25.2567L28.0481 24.0314L29.1118 23.2742H27.7971Z" fill="#161616"/>
<path d="M32.3576 23.2742L31.9514 22.0488L31.5451 23.2742H30.2305L31.294 24.0314L30.8878 25.2567L31.9514 24.4995L33.0149 25.2567L32.6087 24.0314L33.6723 23.2742H32.3576Z" fill="#161616"/>
<path d="M36.9457 23.2742L36.5479 22.0488L36.1495 23.2742H34.8613L35.9035 24.0314L35.5057 25.2567L36.5479 24.4995L37.5901 25.2567L37.1917 24.0314L38.2345 23.2742H36.9457Z" fill="#161616"/>
<path d="M2.03528 8.26303C2.40993 8.83459 2.98965 9.55051 3.83493 9.53011C4.60359 9.56851 5.26766 9.04393 5.79062 8.60611C6.35385 8.13457 6.86222 7.44499 7.07684 6.69949C6.29066 6.47077 5.53797 6.89449 4.97667 7.29415C4.39053 7.71157 3.93974 8.47549 3.8429 9.25987C3.83564 8.47405 3.62295 7.66243 3.28005 7.00861C2.96655 6.41089 2.52969 5.60293 1.75029 5.44141C1.44321 6.37147 1.54118 7.50943 2.03528 8.26303Z" fill="#161616"/>
<path d="M4.08555 12.6083C3.30105 12.7398 2.53581 12.2591 2.03883 11.6937C1.39899 10.9658 1.01829 9.9893 1.09593 9.01172C1.90185 9.03218 2.51223 9.72884 2.96337 10.2556C3.44925 10.823 3.84735 11.5695 4.03833 12.3395C3.95433 11.5721 4.21197 10.7434 4.69023 10.2314C5.15187 9.73712 5.79855 9.19844 6.60315 9.2849C6.58581 10.063 6.19575 10.8044 5.79345 11.3596C5.41845 11.8771 4.84077 12.5171 4.08555 12.6083Z" fill="#161616"/>
<path d="M2.63625 15.1926C3.35877 15.663 4.23507 16.1286 5.15601 15.7763C5.91153 15.509 6.39189 14.7485 6.68733 14.0504C7.00029 13.3108 7.20933 12.458 7.06461 11.6484C6.23439 11.7221 5.54595 12.3161 5.18031 13.0412C4.79805 13.7993 4.72473 14.7015 5.01837 15.4963C4.58451 14.6787 3.95001 14.0171 3.27789 13.4058C2.66691 12.8502 1.78683 12.2648 0.900391 12.3749C1.06905 13.4708 1.73781 14.6078 2.63625 15.1926Z" fill="#161616"/>
<path d="M7.01688 18.7387C7.72788 18.3137 8.01402 17.4193 8.13096 16.653C8.25702 15.8265 8.25162 14.9149 7.90836 14.1309C7.08348 14.3613 6.51726 15.1037 6.3303 15.9169C6.13278 16.776 6.29946 17.6917 6.77994 18.4232C6.14124 17.6904 5.29194 17.0854 4.47804 16.6611C3.69186 16.2513 2.72736 15.757 1.7832 16.0555C2.23848 17.1667 3.2124 18.2012 4.2918 18.6291C5.12772 18.9604 6.14466 19.2881 7.01688 18.7387Z" fill="#161616"/>
<path d="M10.3874 19.0278C10.4917 19.8256 10.4888 20.8374 9.86943 21.4515C9.09543 22.2437 7.89759 22.0908 6.97371 21.9165C5.73339 21.6824 4.33719 20.8364 3.58887 19.71C4.50279 19.2068 5.62053 19.5287 6.52533 19.7893L6.57699 19.8041C7.58697 20.0947 8.66325 20.5627 9.56337 21.2022C8.84505 20.5531 8.32167 19.6004 8.29605 18.6402C8.27301 17.7813 8.64579 16.8625 9.44799 16.4531C10.008 17.1882 10.2703 18.1319 10.3874 19.0278Z" fill="#161616"/>
<path d="M13.982 23.7092C14.4381 22.8409 13.9862 21.8219 13.6261 21.0687C13.2003 20.1783 12.6187 19.2709 11.7862 18.6191C10.9868 19.3081 11.0628 20.2938 11.3004 21.1505C11.583 22.1691 12.5628 23.0374 13.5773 23.5322C12.4023 23.0941 11.1191 22.8311 9.89825 22.7534L9.77459 22.7455C8.79377 22.6816 7.51691 22.5984 6.73535 23.3162C7.91705 24.3208 9.59555 24.9004 11.0749 24.8702C12.0663 24.8501 13.4265 24.7328 13.982 23.7092Z" fill="#161616"/>
<path d="M50.0837 6.18197C49.7975 5.41199 49.1711 4.74059 48.4895 4.42745C47.8565 4.13705 47.0159 3.83399 46.2773 4.20611C46.6793 4.91195 47.3411 5.50589 48.0173 5.87945C48.6251 6.21533 49.3949 6.62225 50.1569 6.44735C50.9873 6.32015 51.3887 5.49347 51.6119 4.86809C51.9209 4.00391 51.7097 2.84981 51.1823 2.00195C50.4551 2.30501 50.2331 3.20417 50.0813 3.84035C49.9079 4.56449 49.9031 5.40977 50.0837 6.18197Z" fill="#161616"/>
<path d="M49.4881 7.29394C50.0737 7.71154 50.5231 8.47504 50.6197 9.25888C50.6281 8.47348 50.8417 7.66264 51.1849 7.00948C51.4987 6.41194 51.9367 5.60434 52.7161 5.44336C53.0221 6.37372 52.9231 7.51162 52.4281 8.2648C52.0537 8.83534 51.4741 9.54976 50.6305 9.53062C49.8607 9.56992 49.1959 9.04408 48.6727 8.60536C48.1099 8.13334 47.6023 7.4434 47.3887 6.69778C48.1747 6.46954 48.9271 6.89386 49.4881 7.29394Z" fill="#161616"/>
<path d="M50.4208 12.3441C50.5066 11.576 50.2498 10.7456 49.771 10.2325C49.3102 9.7379 48.664 9.19874 47.8594 9.2846C47.8756 10.0627 48.265 10.8045 48.667 11.36C49.0414 11.8775 49.618 12.5175 50.3728 12.6097C51.1576 12.7426 51.9238 12.2622 52.4218 11.6969C53.062 10.9695 53.4436 9.99333 53.3674 9.01562C52.561 9.03555 51.9502 9.73166 51.4984 10.2581C51.0112 10.8258 50.6122 11.5731 50.4208 12.3441Z" fill="#161616"/>
<path d="M49.2789 13.0427C49.6605 13.8011 49.7331 14.7036 49.4385 15.4981C49.8729 14.6806 50.5083 14.0195 51.1809 13.4086C51.7923 12.8534 52.6731 12.2688 53.5593 12.3795C53.3901 13.4753 52.7199 14.6118 51.8211 15.1959C51.0987 15.6651 50.2233 16.1298 49.3035 15.7788C48.5469 15.512 48.0663 14.75 47.7711 14.0507C47.4585 13.3109 47.2503 12.4579 47.3961 11.6484C48.2259 11.7228 48.9141 12.3173 49.2789 13.0427Z" fill="#161616"/>
<path d="M47.6749 18.4224C48.1549 17.6916 48.3223 16.7768 48.1261 15.9181C47.9401 15.1047 47.3743 14.3619 46.5493 14.1309C46.2055 14.9146 46.1995 15.826 46.3243 16.6527C46.4407 17.4176 46.7251 18.3102 47.4319 18.7368C48.3049 19.2904 49.3243 18.963 50.1613 18.6318C51.2413 18.2046 52.2163 17.1708 52.6723 16.0599C51.7285 15.7608 50.7637 16.2544 49.9771 16.6636C49.1635 17.087 48.3139 17.6908 47.6749 18.4224Z" fill="#161616"/>
<path d="M44.0656 19.0253C43.9606 19.8229 43.9624 20.8347 44.5816 21.4492C45.3544 22.2421 46.5526 22.09 47.4766 21.9163C48.7174 21.6831 50.1142 20.8381 50.8636 19.7124C49.9504 19.2085 48.832 19.5295 47.9272 19.7893L47.875 19.8042C46.8652 20.0939 45.7888 20.5609 44.8882 21.1995C45.607 20.5509 46.1308 19.599 46.1572 18.6391C46.1812 17.7804 45.8092 16.8612 45.0076 16.4512C44.4466 17.1858 44.1838 18.1294 44.0656 19.0253Z" fill="#161616"/>
<path d="M43.3721 24.8668C42.3809 24.8458 41.0207 24.7276 40.4663 23.7035L40.4585 23.6894C40.0157 22.8238 40.4657 21.8121 40.8245 21.0634C41.2511 20.1733 41.8337 19.2662 42.6665 18.6152C43.4657 19.3047 43.3883 20.2904 43.1501 21.1468C42.8663 22.1653 41.8859 23.033 40.8707 23.527C42.0461 23.0897 43.3295 22.8277 44.5505 22.7509L44.6747 22.7429C45.6557 22.6798 46.9325 22.5977 47.7131 23.3159C46.5305 24.3195 44.8517 24.898 43.3721 24.8668Z" fill="#161616"/>
</g>
<defs>
<clipPath id="clip0_96_388">
<rect width="54" height="25" fill="white"/>
</clipPath>
</defs>
</svg>
