<svg width="79" height="20" viewBox="0 0 79 20" fill="none" xmlns="http://www.w3.org/2000/svg">
<g clip-path="url(#clip0_96_499)">
<mask id="mask0_96_499" style="mask-type:luminance" maskUnits="userSpaceOnUse" x="0" y="0" width="79" height="20">
<path d="M78.5084 0.00878906H0.501953V19.5348H78.5084V0.00878906Z" fill="white"/>
</mask>
<g mask="url(#mask0_96_499)">
<path fill-rule="evenodd" clip-rule="evenodd" d="M11.758 0.135254L15.4907 4.56044L16.3614 12.7377L9.77296 19.6613L2.10742 12.7149L5.96718 2.89404L11.758 0.135254ZM6.30191 3.64798L9.3807 6.90041L6.23211 11.4672L2.93224 12.2219L6.30191 3.64798ZM3.07098 12.7943L8.9226 18.097L6.23888 12.0699L3.07098 12.7943ZM6.88153 12.0691L9.84746 18.73L15.424 12.8698L6.88153 12.0691ZM15.681 11.8922L14.9577 5.09964L10.3015 6.96999L15.681 11.8922ZM9.83354 6.52345L14.7213 4.56008L11.6017 0.861793L6.68946 3.20204L9.83354 6.52345ZM9.80816 7.3158L15.2095 12.258L6.93542 11.4825L9.80816 7.3158Z" fill="#161616"/>
<path d="M39.7514 15.4803C38.0975 15.4803 36.7014 14.9434 35.5845 13.848C34.4676 12.7525 33.9092 11.3779 33.9092 9.74553C33.9092 8.11316 34.4676 6.76001 35.5845 5.6646C36.7014 4.56919 38.0975 4.01074 39.7514 4.01074C41.1475 4.01074 42.3503 4.41884 43.4027 5.23502C44.4552 6.02973 45.121 7.08219 45.4002 8.34942H43.4457C42.8658 6.82444 41.4697 5.79347 39.7514 5.79347C38.613 5.79347 37.6894 6.18008 36.9377 6.93183C36.1859 7.68359 35.8208 8.60717 35.8208 9.74553C35.8208 10.8839 36.1859 11.829 36.9377 12.5807C37.6894 13.3325 38.613 13.6976 39.7514 13.6976C41.4697 13.6976 42.8658 12.6666 43.4457 11.1416H45.4002C45.121 12.4089 44.4552 13.4613 43.4027 14.2775C42.3503 15.0722 41.1475 15.4803 39.7514 15.4803Z" fill="#161616"/>
<path d="M63.6422 5.14911C62.8904 4.39736 61.9024 4.01074 60.6781 4.01074C58.8524 4.01074 57.5208 4.76249 56.7261 6.28748C56.1032 4.84841 54.7285 4.01074 52.9888 4.01074C51.3994 4.01074 50.1966 4.61214 49.4018 5.83642V4.26849H47.5547V15.2226H49.4018V8.71456C49.4018 6.97479 50.6046 5.79347 52.4089 5.79347C54.1271 5.79347 55.244 6.93183 55.244 8.6716V15.2226H57.0912V8.71456C57.0912 6.97479 58.294 5.79347 60.0982 5.79347C61.8165 5.79347 62.9334 6.93183 62.9334 8.6716V15.2226H64.7805V8.15612C64.7805 6.88888 64.3939 5.90086 63.6422 5.14911Z" fill="#161616"/>
<path fill-rule="evenodd" clip-rule="evenodd" d="M78.4335 10.4543V10.4541C78.4532 10.1996 78.4715 9.96344 78.4715 9.74553C78.4715 8.11316 77.913 6.76001 76.7962 5.6646C75.7008 4.56919 74.3046 4.01074 72.6508 4.01074C70.9969 4.01074 69.6008 4.56919 68.4839 5.6646C67.3885 6.76001 66.8301 8.11316 66.8301 9.74553C66.8301 11.3779 67.3885 12.7525 68.4839 13.848C69.6008 14.9434 70.9969 15.4803 72.6508 15.4803C75.3141 15.4803 77.462 13.9768 78.2567 11.7216H76.2162C75.6363 12.9458 74.2832 13.7835 72.6508 13.7835C71.6628 13.7835 70.8036 13.4828 70.0948 12.8814C69.386 12.28 68.9565 11.4853 68.8061 10.5188H78.4285L78.4335 10.4543ZM76.4955 8.86491H68.8276C69.1927 6.97479 70.6962 5.70755 72.6508 5.70755C74.6053 5.70755 76.1518 6.99627 76.4955 8.86491Z" fill="#161616"/>
<path fill-rule="evenodd" clip-rule="evenodd" d="M32.314 4.26855H23.9803V6.05129H30.4668V8.19915H27.2021C26.0637 8.19915 25.1186 8.54281 24.3669 9.25161C23.6151 9.93895 23.25 10.7981 23.25 11.8291C23.25 12.8815 23.6151 13.7407 24.3669 14.4495C25.1186 15.1368 26.0637 15.4804 27.2021 15.4804C28.6841 15.4804 29.9728 14.8361 30.6601 13.8051V15.2227H32.314V4.26855ZM30.4668 11.6358C30.4668 12.9245 29.2425 13.8051 27.4383 13.8051C26.1281 13.8051 25.1616 12.9674 25.1616 11.8291C25.1616 10.7122 26.1281 9.87451 27.4383 9.87451H30.4668V11.6358Z" fill="#161616"/>
</g>
</g>
<defs>
<clipPath id="clip0_96_499">
<rect width="78.0064" height="19.526" fill="white" transform="translate(0.501953 0.00878906)"/>
</clipPath>
</defs>
</svg>
